<?xml version="1.0" encoding="UTF-8"?>
<svg xmlns="http://www.w3.org/2000/svg" xmlns:xlink="http://www.w3.org/1999/xlink" width="432" height="288" viewBox="0 0 432 288">
<defs>
<g>
<g id="glyph-0-0">
<path d="M 3.878906 0 L 3.878906 -2.054688 L 0.152344 -2.054688 L 0.152344 -3.023438 L 4.070312 -8.589844 L 4.933594 -8.589844 L 4.933594 -3.023438 L 6.09375 -3.023438 L 6.09375 -2.054688 L 4.933594 -2.054688 L 4.933594 0 L 3.878906 0 M 3.878906 -3.023438 L 3.878906 -6.898438 L 1.1875 -3.023438 Z M 3.878906 -3.023438 "/>
</g>
<g id="glyph-0-1">
<path d="M 1.089844 0 L 1.089844 -1.203125 L 2.289062 -1.203125 L 2.289062 0 Z M 1.089844 0 "/>
</g>
<g id="glyph-0-2">
<path d="M 5.96875 -6.484375 L 4.921875 -6.40625 C 4.828125 -6.816406 4.695312 -7.117188 4.523438 -7.304688 C 4.238281 -7.605469 3.886719 -7.757812 3.46875 -7.757812 C 3.132812 -7.757812 2.835938 -7.664062 2.585938 -7.476562 C 2.25 -7.234375 1.988281 -6.878906 1.796875 -6.414062 C 1.605469 -5.949219 1.507812 -5.289062 1.5 -4.429688 C 1.753906 -4.816406 2.0625 -5.101562 2.429688 -5.289062 C 2.796875 -5.476562 3.183594 -5.570312 3.585938 -5.570312 C 4.289062 -5.570312 4.886719 -5.3125 5.382812 -4.796875 C 5.875 -4.277344 6.125 -3.609375 6.125 -2.789062 C 6.125 -2.25 6.007812 -1.75 5.773438 -1.285156 C 5.542969 -0.824219 5.222656 -0.46875 4.816406 -0.222656 C 4.410156 0.0234375 3.949219 0.148438 3.433594 0.148438 C 2.554688 0.148438 1.835938 -0.175781 1.28125 -0.824219 C 0.726562 -1.46875 0.453125 -2.535156 0.453125 -4.019531 C 0.453125 -5.679688 0.757812 -6.886719 1.371094 -7.640625 C 1.90625 -8.296875 2.625 -8.625 3.53125 -8.625 C 4.207031 -8.625 4.761719 -8.433594 5.195312 -8.054688 C 5.625 -7.675781 5.882812 -7.15625 5.96875 -6.484375 M 1.664062 -2.78125 C 1.664062 -2.421875 1.742188 -2.070312 1.894531 -1.742188 C 2.050781 -1.40625 2.265625 -1.15625 2.542969 -0.980469 C 2.820312 -0.808594 3.109375 -0.71875 3.414062 -0.71875 C 3.859375 -0.71875 4.242188 -0.898438 4.5625 -1.257812 C 4.882812 -1.617188 5.042969 -2.105469 5.046875 -2.726562 C 5.042969 -3.316406 4.886719 -3.785156 4.570312 -4.128906 C 4.253906 -4.46875 3.855469 -4.640625 3.375 -4.640625 C 2.898438 -4.640625 2.492188 -4.46875 2.164062 -4.128906 C 1.828125 -3.785156 1.664062 -3.335938 1.664062 -2.78125 Z M 1.664062 -2.78125 "/>
</g>
<g id="glyph-0-3">
<path d="M 2.121094 -4.65625 C 1.683594 -4.816406 1.359375 -5.046875 1.148438 -5.34375 C 0.9375 -5.640625 0.832031 -5.996094 0.832031 -6.410156 C 0.832031 -7.035156 1.058594 -7.558594 1.507812 -7.984375 C 1.953125 -8.410156 2.550781 -8.625 3.296875 -8.625 C 4.046875 -8.625 4.652344 -8.40625 5.109375 -7.972656 C 5.566406 -7.535156 5.796875 -7.003906 5.796875 -6.382812 C 5.796875 -5.980469 5.691406 -5.636719 5.480469 -5.339844 C 5.273438 -5.046875 4.953125 -4.816406 4.53125 -4.65625 C 5.054688 -4.484375 5.457031 -4.207031 5.734375 -3.828125 C 6.007812 -3.441406 6.148438 -2.984375 6.148438 -2.453125 C 6.148438 -1.71875 5.886719 -1.101562 5.367188 -0.601562 C 4.847656 -0.105469 4.164062 0.148438 3.316406 0.148438 C 2.46875 0.148438 1.785156 -0.105469 1.265625 -0.605469 C 0.746094 -1.109375 0.484375 -1.734375 0.484375 -2.484375 C 0.484375 -3.042969 0.628906 -3.511719 0.910156 -3.886719 C 1.195312 -4.265625 1.597656 -4.519531 2.121094 -4.65625 M 1.910156 -6.445312 C 1.910156 -6.039062 2.039062 -5.707031 2.304688 -5.449219 C 2.5625 -5.191406 2.902344 -5.0625 3.320312 -5.0625 C 3.726562 -5.0625 4.0625 -5.191406 4.320312 -5.445312 C 4.582031 -5.703125 4.710938 -6.015625 4.710938 -6.386719 C 4.710938 -6.773438 4.578125 -7.097656 4.308594 -7.363281 C 4.042969 -7.625 3.710938 -7.757812 3.3125 -7.757812 C 2.90625 -7.757812 2.574219 -7.628906 2.308594 -7.371094 C 2.042969 -7.113281 1.910156 -6.804688 1.910156 -6.445312 M 1.570312 -2.476562 C 1.570312 -2.175781 1.640625 -1.886719 1.785156 -1.605469 C 1.925781 -1.324219 2.140625 -1.105469 2.421875 -0.953125 C 2.703125 -0.796875 3.003906 -0.71875 3.328125 -0.71875 C 3.832031 -0.71875 4.25 -0.882812 4.578125 -1.207031 C 4.90625 -1.53125 5.070312 -1.941406 5.070312 -2.445312 C 5.070312 -2.949219 4.898438 -3.371094 4.5625 -3.703125 C 4.222656 -4.035156 3.800781 -4.203125 3.292969 -4.203125 C 2.796875 -4.203125 2.386719 -4.039062 2.058594 -3.710938 C 1.734375 -3.382812 1.570312 -2.96875 1.570312 -2.476562 Z M 1.570312 -2.476562 "/>
</g>
<g id="glyph-0-4">
<path d="M 0.5 -2.25 L 1.605469 -2.34375 C 1.6875 -1.804688 1.878906 -1.398438 2.175781 -1.128906 C 2.476562 -0.855469 2.835938 -0.71875 3.257812 -0.71875 C 3.765625 -0.71875 4.195312 -0.910156 4.546875 -1.296875 C 4.898438 -1.675781 5.074219 -2.1875 5.074219 -2.820312 C 5.074219 -3.417969 4.90625 -3.894531 4.566406 -4.242188 C 4.230469 -4.589844 3.785156 -4.761719 3.242188 -4.765625 C 2.898438 -4.761719 2.59375 -4.6875 2.320312 -4.53125 C 2.046875 -4.378906 1.832031 -4.179688 1.675781 -3.929688 L 0.6875 -4.0625 L 1.515625 -8.472656 L 5.789062 -8.472656 L 5.789062 -7.464844 L 2.359375 -7.464844 L 1.898438 -5.15625 C 2.414062 -5.515625 2.953125 -5.695312 3.523438 -5.695312 C 4.273438 -5.695312 4.90625 -5.433594 5.421875 -4.914062 C 5.9375 -4.394531 6.195312 -3.726562 6.195312 -2.914062 C 6.195312 -2.132812 5.964844 -1.460938 5.515625 -0.898438 C 4.960938 -0.203125 4.210938 0.148438 3.257812 0.148438 C 2.476562 0.148438 1.839844 -0.0742188 1.34375 -0.507812 C 0.851562 -0.945312 0.570312 -1.527344 0.5 -2.25 Z M 0.5 -2.25 "/>
</g>
<g id="glyph-0-5">
<path d="M 0.5 -4.234375 C 0.5 -5.25 0.601562 -6.070312 0.8125 -6.6875 C 1.019531 -7.308594 1.332031 -7.785156 1.742188 -8.121094 C 2.15625 -8.457031 2.671875 -8.625 3.296875 -8.625 C 3.757812 -8.625 4.164062 -8.53125 4.511719 -8.347656 C 4.859375 -8.160156 5.144531 -7.894531 5.375 -7.542969 C 5.597656 -7.195312 5.777344 -6.769531 5.90625 -6.265625 C 6.035156 -5.765625 6.101562 -5.085938 6.101562 -4.234375 C 6.101562 -3.226562 5.996094 -2.414062 5.789062 -1.796875 C 5.582031 -1.175781 5.273438 -0.699219 4.859375 -0.359375 C 4.449219 -0.0234375 3.925781 0.148438 3.296875 0.148438 C 2.46875 0.148438 1.820312 -0.152344 1.347656 -0.742188 C 0.78125 -1.460938 0.5 -2.621094 0.5 -4.234375 M 1.582031 -4.234375 C 1.582031 -2.824219 1.746094 -1.886719 2.078125 -1.421875 C 2.40625 -0.953125 2.8125 -0.71875 3.296875 -0.71875 C 3.78125 -0.71875 4.191406 -0.953125 4.519531 -1.421875 C 4.851562 -1.890625 5.015625 -2.828125 5.015625 -4.234375 C 5.015625 -5.648438 4.851562 -6.589844 4.519531 -7.054688 C 4.191406 -7.519531 3.78125 -7.75 3.289062 -7.75 C 2.800781 -7.75 2.414062 -7.546875 2.125 -7.136719 C 1.765625 -6.613281 1.582031 -5.644531 1.582031 -4.234375 Z M 1.582031 -4.234375 "/>
</g>
<g id="glyph-0-6">
<path d="M 6.039062 -1.015625 L 6.039062 0 L 0.363281 0 C 0.355469 -0.253906 0.394531 -0.5 0.484375 -0.734375 C 0.628906 -1.117188 0.863281 -1.5 1.179688 -1.875 C 1.5 -2.25 1.957031 -2.683594 2.5625 -3.175781 C 3.492188 -3.941406 4.125 -4.546875 4.453125 -4.996094 C 4.78125 -5.441406 4.945312 -5.867188 4.945312 -6.265625 C 4.945312 -6.679688 4.796875 -7.035156 4.496094 -7.320312 C 4.199219 -7.609375 3.808594 -7.75 3.328125 -7.75 C 2.820312 -7.75 2.414062 -7.601562 2.109375 -7.296875 C 1.804688 -6.992188 1.648438 -6.570312 1.648438 -6.03125 L 0.5625 -6.140625 C 0.636719 -6.949219 0.917969 -7.566406 1.398438 -7.988281 C 1.882812 -8.414062 2.535156 -8.625 3.351562 -8.625 C 4.175781 -8.625 4.828125 -8.398438 5.308594 -7.9375 C 5.789062 -7.484375 6.03125 -6.914062 6.03125 -6.242188 C 6.03125 -5.894531 5.957031 -5.558594 5.820312 -5.226562 C 5.675781 -4.894531 5.445312 -4.542969 5.117188 -4.179688 C 4.792969 -3.808594 4.25 -3.304688 3.492188 -2.664062 C 2.859375 -2.132812 2.453125 -1.773438 2.273438 -1.585938 C 2.09375 -1.394531 1.945312 -1.203125 1.828125 -1.015625 Z M 6.039062 -1.015625 "/>
</g>
<g id="glyph-0-7">
<path d="M 3.382812 0 L 0.0546875 -8.589844 L 1.28125 -8.589844 L 3.515625 -2.351562 C 3.695312 -1.847656 3.84375 -1.378906 3.96875 -0.945312 C 4.097656 -1.414062 4.253906 -1.882812 4.429688 -2.351562 L 6.75 -8.589844 L 7.910156 -8.589844 L 4.546875 0 Z M 3.382812 0 "/>
</g>
<g id="glyph-0-8">
<path d="M 4.851562 -0.765625 C 4.460938 -0.433594 4.085938 -0.199219 3.722656 -0.0625 C 3.363281 0.0703125 2.972656 0.140625 2.5625 0.140625 C 1.875 0.140625 1.351562 -0.0273438 0.984375 -0.359375 C 0.617188 -0.695312 0.433594 -1.121094 0.433594 -1.640625 C 0.433594 -1.945312 0.503906 -2.222656 0.640625 -2.476562 C 0.78125 -2.726562 0.960938 -2.929688 1.1875 -3.082031 C 1.410156 -3.234375 1.664062 -3.347656 1.945312 -3.429688 C 2.152344 -3.480469 2.464844 -3.535156 2.882812 -3.585938 C 3.734375 -3.6875 4.359375 -3.808594 4.765625 -3.949219 C 4.765625 -4.09375 4.769531 -4.183594 4.769531 -4.226562 C 4.769531 -4.652344 4.671875 -4.957031 4.46875 -5.132812 C 4.203125 -5.371094 3.800781 -5.492188 3.269531 -5.492188 C 2.773438 -5.492188 2.40625 -5.402344 2.171875 -5.230469 C 1.933594 -5.054688 1.757812 -4.746094 1.648438 -4.304688 L 0.617188 -4.445312 C 0.707031 -4.886719 0.863281 -5.246094 1.078125 -5.515625 C 1.292969 -5.789062 1.601562 -5.996094 2.007812 -6.144531 C 2.414062 -6.289062 2.886719 -6.363281 3.421875 -6.363281 C 3.953125 -6.363281 4.382812 -6.300781 4.71875 -6.175781 C 5.046875 -6.050781 5.292969 -5.894531 5.449219 -5.703125 C 5.605469 -5.515625 5.714844 -5.273438 5.777344 -4.984375 C 5.8125 -4.804688 5.828125 -4.484375 5.828125 -4.015625 L 5.828125 -2.609375 C 5.828125 -1.628906 5.851562 -1.007812 5.898438 -0.746094 C 5.941406 -0.488281 6.03125 -0.238281 6.164062 0 L 5.0625 0 C 4.953125 -0.21875 4.882812 -0.476562 4.851562 -0.765625 M 4.765625 -3.125 C 4.378906 -2.964844 3.804688 -2.832031 3.039062 -2.726562 C 2.605469 -2.660156 2.300781 -2.589844 2.121094 -2.515625 C 1.941406 -2.433594 1.800781 -2.320312 1.703125 -2.171875 C 1.605469 -2.019531 1.558594 -1.851562 1.558594 -1.671875 C 1.558594 -1.386719 1.664062 -1.152344 1.878906 -0.96875 C 2.089844 -0.78125 2.402344 -0.683594 2.8125 -0.6875 C 3.21875 -0.683594 3.578125 -0.773438 3.898438 -0.953125 C 4.210938 -1.128906 4.445312 -1.371094 4.59375 -1.679688 C 4.707031 -1.917969 4.761719 -2.269531 4.765625 -2.734375 Z M 4.765625 -3.125 "/>
</g>
<g id="glyph-0-9">
<path d="M 0.765625 0 L 0.765625 -8.589844 L 1.820312 -8.589844 L 1.820312 0 Z M 0.765625 0 "/>
</g>
<g id="glyph-0-10">
<path d="M 4.867188 0 L 4.867188 -0.914062 C 4.382812 -0.210938 3.726562 0.140625 2.894531 0.140625 C 2.527344 0.140625 2.183594 0.0703125 1.867188 -0.0703125 C 1.546875 -0.210938 1.3125 -0.386719 1.15625 -0.601562 C 1.003906 -0.8125 0.894531 -1.074219 0.832031 -1.382812 C 0.789062 -1.589844 0.765625 -1.917969 0.765625 -2.367188 L 0.765625 -6.222656 L 1.820312 -6.222656 L 1.820312 -2.773438 C 1.820312 -2.21875 1.84375 -1.847656 1.886719 -1.65625 C 1.953125 -1.378906 2.09375 -1.164062 2.308594 -1.003906 C 2.523438 -0.847656 2.789062 -0.765625 3.105469 -0.765625 C 3.421875 -0.765625 3.71875 -0.847656 3.996094 -1.011719 C 4.273438 -1.171875 4.46875 -1.394531 4.585938 -1.671875 C 4.699219 -1.953125 4.757812 -2.355469 4.757812 -2.890625 L 4.757812 -6.222656 L 5.8125 -6.222656 L 5.8125 0 Z M 4.867188 0 "/>
</g>
<g id="glyph-0-11">
<path d="M 5.050781 -2.003906 L 6.140625 -1.867188 C 5.96875 -1.230469 5.648438 -0.738281 5.1875 -0.386719 C 4.71875 -0.0351562 4.125 0.140625 3.40625 0.140625 C 2.492188 0.140625 1.773438 -0.140625 1.238281 -0.699219 C 0.707031 -1.261719 0.4375 -2.046875 0.4375 -3.058594 C 0.4375 -4.105469 0.710938 -4.917969 1.25 -5.496094 C 1.789062 -6.074219 2.484375 -6.363281 3.34375 -6.363281 C 4.179688 -6.363281 4.859375 -6.078125 5.382812 -5.515625 C 5.914062 -4.945312 6.175781 -4.148438 6.175781 -3.125 C 6.175781 -3.058594 6.171875 -2.964844 6.171875 -2.84375 L 1.53125 -2.84375 C 1.566406 -2.15625 1.761719 -1.632812 2.109375 -1.273438 C 2.457031 -0.90625 2.890625 -0.726562 3.410156 -0.726562 C 3.796875 -0.726562 4.125 -0.828125 4.398438 -1.03125 C 4.671875 -1.234375 4.890625 -1.558594 5.050781 -2.003906 M 1.585938 -3.710938 L 5.0625 -3.710938 C 5.015625 -4.230469 4.882812 -4.625 4.664062 -4.886719 C 4.328125 -5.292969 3.890625 -5.496094 3.359375 -5.496094 C 2.871094 -5.496094 2.464844 -5.332031 2.136719 -5.007812 C 1.804688 -4.683594 1.625 -4.25 1.585938 -3.710938 Z M 1.585938 -3.710938 "/>
</g>
<g id="glyph-0-12">
<path d="M 1.765625 0 L 0.785156 0 L 0.785156 -8.589844 L 1.839844 -8.589844 L 1.839844 -5.523438 C 2.285156 -6.082031 2.851562 -6.363281 3.546875 -6.363281 C 3.925781 -6.363281 4.289062 -6.285156 4.632812 -6.132812 C 4.972656 -5.976562 5.253906 -5.761719 5.476562 -5.480469 C 5.695312 -5.203125 5.867188 -4.863281 5.992188 -4.46875 C 6.117188 -4.074219 6.179688 -3.652344 6.179688 -3.203125 C 6.179688 -2.140625 5.917969 -1.3125 5.390625 -0.734375 C 4.863281 -0.152344 4.230469 0.140625 3.492188 0.140625 C 2.757812 0.140625 2.179688 -0.167969 1.765625 -0.78125 L 1.765625 0 M 1.75 -3.15625 C 1.75 -2.410156 1.851562 -1.871094 2.054688 -1.539062 C 2.386719 -1 2.835938 -0.726562 3.40625 -0.726562 C 3.863281 -0.726562 4.261719 -0.925781 4.601562 -1.328125 C 4.933594 -1.726562 5.101562 -2.324219 5.101562 -3.117188 C 5.101562 -3.929688 4.941406 -4.53125 4.621094 -4.914062 C 4.296875 -5.304688 3.90625 -5.496094 3.453125 -5.496094 C 2.988281 -5.496094 2.589844 -5.296875 2.257812 -4.894531 C 1.921875 -4.496094 1.75 -3.914062 1.75 -3.15625 Z M 1.75 -3.15625 "/>
</g>
<g id="glyph-0-13">
<path d="M 0.78125 0 L 0.78125 -6.222656 L 1.726562 -6.222656 L 1.726562 -5.28125 C 1.96875 -5.71875 2.195312 -6.011719 2.398438 -6.152344 C 2.605469 -6.292969 2.828125 -6.363281 3.078125 -6.363281 C 3.429688 -6.363281 3.792969 -6.25 4.160156 -6.023438 L 3.796875 -5.046875 C 3.539062 -5.195312 3.28125 -5.273438 3.023438 -5.273438 C 2.792969 -5.273438 2.585938 -5.203125 2.402344 -5.066406 C 2.21875 -4.925781 2.085938 -4.734375 2.007812 -4.488281 C 1.890625 -4.113281 1.835938 -3.703125 1.835938 -3.257812 L 1.835938 0 Z M 0.78125 0 "/>
</g>
<g id="glyph-0-14">
<path d="M 0.789062 0 L 0.789062 -6.222656 L 1.734375 -6.222656 L 1.734375 -5.351562 C 1.929688 -5.65625 2.1875 -5.898438 2.515625 -6.085938 C 2.835938 -6.269531 3.207031 -6.363281 3.621094 -6.363281 C 4.082031 -6.363281 4.460938 -6.265625 4.753906 -6.078125 C 5.050781 -5.882812 5.257812 -5.617188 5.378906 -5.273438 C 5.871094 -6 6.511719 -6.363281 7.300781 -6.363281 C 7.917969 -6.363281 8.390625 -6.191406 8.726562 -5.851562 C 9.054688 -5.507812 9.222656 -4.980469 9.222656 -4.273438 L 9.222656 0 L 8.171875 0 L 8.171875 -3.921875 C 8.171875 -4.339844 8.140625 -4.644531 8.070312 -4.832031 C 8.003906 -5.015625 7.878906 -5.164062 7.699219 -5.28125 C 7.519531 -5.390625 7.308594 -5.449219 7.066406 -5.449219 C 6.628906 -5.449219 6.265625 -5.304688 5.976562 -5.011719 C 5.6875 -4.722656 5.542969 -4.253906 5.542969 -3.617188 L 5.542969 0 L 4.488281 0 L 4.488281 -4.042969 C 4.488281 -4.511719 4.402344 -4.863281 4.230469 -5.097656 C 4.058594 -5.332031 3.777344 -5.449219 3.386719 -5.449219 C 3.089844 -5.449219 2.816406 -5.371094 2.5625 -5.214844 C 2.3125 -5.058594 2.128906 -4.828125 2.015625 -4.53125 C 1.902344 -4.226562 1.84375 -3.792969 1.84375 -3.226562 L 1.84375 0 Z M 0.789062 0 "/>
</g>
<g id="glyph-0-15">
<path d="M 0.367188 -1.859375 L 1.414062 -2.023438 C 1.46875 -1.601562 1.632812 -1.28125 1.902344 -1.0625 C 2.167969 -0.835938 2.542969 -0.726562 3.023438 -0.726562 C 3.507812 -0.726562 3.867188 -0.824219 4.101562 -1.023438 C 4.335938 -1.21875 4.453125 -1.449219 4.453125 -1.71875 C 4.453125 -1.953125 4.347656 -2.140625 4.140625 -2.28125 C 3.996094 -2.375 3.640625 -2.492188 3.0625 -2.636719 C 2.289062 -2.832031 1.753906 -3 1.457031 -3.144531 C 1.15625 -3.285156 0.929688 -3.484375 0.777344 -3.734375 C 0.621094 -3.988281 0.546875 -4.265625 0.546875 -4.570312 C 0.546875 -4.847656 0.609375 -5.105469 0.734375 -5.339844 C 0.863281 -5.578125 1.035156 -5.773438 1.253906 -5.929688 C 1.417969 -6.050781 1.640625 -6.152344 1.925781 -6.238281 C 2.207031 -6.320312 2.511719 -6.363281 2.835938 -6.363281 C 3.324219 -6.363281 3.753906 -6.292969 4.121094 -6.152344 C 4.492188 -6.011719 4.761719 -5.820312 4.9375 -5.582031 C 5.113281 -5.339844 5.234375 -5.019531 5.304688 -4.617188 L 4.273438 -4.476562 C 4.226562 -4.796875 4.089844 -5.046875 3.863281 -5.226562 C 3.640625 -5.40625 3.320312 -5.496094 2.914062 -5.496094 C 2.425781 -5.496094 2.082031 -5.414062 1.875 -5.257812 C 1.667969 -5.09375 1.5625 -4.90625 1.5625 -4.695312 C 1.5625 -4.554688 1.605469 -4.433594 1.695312 -4.324219 C 1.777344 -4.210938 1.914062 -4.117188 2.097656 -4.042969 C 2.203125 -4.003906 2.515625 -3.914062 3.03125 -3.773438 C 3.773438 -3.574219 4.296875 -3.410156 4.589844 -3.285156 C 4.886719 -3.15625 5.117188 -2.972656 5.285156 -2.730469 C 5.453125 -2.488281 5.535156 -2.1875 5.539062 -1.828125 C 5.535156 -1.476562 5.433594 -1.144531 5.230469 -0.835938 C 5.023438 -0.523438 4.726562 -0.285156 4.34375 -0.113281 C 3.953125 0.0546875 3.515625 0.140625 3.03125 0.140625 C 2.21875 0.140625 1.605469 -0.0273438 1.179688 -0.363281 C 0.757812 -0.699219 0.484375 -1.199219 0.367188 -1.859375 Z M 0.367188 -1.859375 "/>
</g>
<g id="glyph-0-16">
<path d="M 0.878906 0 L 0.878906 -8.589844 L 4.101562 -8.589844 C 4.757812 -8.589844 5.285156 -8.503906 5.679688 -8.328125 C 6.078125 -8.15625 6.386719 -7.886719 6.613281 -7.527344 C 6.835938 -7.164062 6.949219 -6.785156 6.949219 -6.390625 C 6.949219 -6.023438 6.851562 -5.679688 6.648438 -5.355469 C 6.453125 -5.03125 6.148438 -4.769531 5.75 -4.570312 C 6.265625 -4.417969 6.667969 -4.15625 6.945312 -3.789062 C 7.226562 -3.421875 7.367188 -2.988281 7.367188 -2.492188 C 7.367188 -2.085938 7.28125 -1.714844 7.109375 -1.367188 C 6.941406 -1.023438 6.730469 -0.757812 6.480469 -0.570312 C 6.230469 -0.382812 5.917969 -0.238281 5.539062 -0.144531 C 5.164062 -0.046875 4.699219 0 4.15625 0 L 0.878906 0 M 2.015625 -4.980469 L 3.875 -4.980469 C 4.375 -4.980469 4.738281 -5.011719 4.957031 -5.078125 C 5.246094 -5.164062 5.464844 -5.308594 5.609375 -5.507812 C 5.757812 -5.707031 5.828125 -5.957031 5.828125 -6.257812 C 5.828125 -6.542969 5.761719 -6.792969 5.625 -7.011719 C 5.488281 -7.226562 5.292969 -7.375 5.039062 -7.457031 C 4.785156 -7.535156 4.347656 -7.578125 3.734375 -7.578125 L 2.015625 -7.578125 L 2.015625 -4.980469 M 2.015625 -1.015625 L 4.15625 -1.015625 C 4.519531 -1.015625 4.777344 -1.027344 4.929688 -1.054688 C 5.1875 -1.101562 5.40625 -1.179688 5.585938 -1.289062 C 5.757812 -1.398438 5.902344 -1.558594 6.015625 -1.765625 C 6.128906 -1.976562 6.1875 -2.214844 6.1875 -2.492188 C 6.1875 -2.808594 6.105469 -3.089844 5.941406 -3.324219 C 5.777344 -3.5625 5.550781 -3.726562 5.257812 -3.824219 C 4.96875 -3.917969 4.546875 -3.96875 4 -3.96875 L 2.015625 -3.96875 Z M 2.015625 -1.015625 "/>
</g>
<g id="glyph-0-17">
<path d="M 1.117188 0 L 1.117188 -8.589844 L 2.257812 -8.589844 L 2.257812 0 Z M 1.117188 0 "/>
</g>
<g id="glyph-1-0">
<path d="M -4.234375 -0.5 C -5.25 -0.5 -6.070312 -0.601562 -6.6875 -0.8125 C -7.308594 -1.019531 -7.785156 -1.332031 -8.121094 -1.742188 C -8.457031 -2.15625 -8.625 -2.671875 -8.625 -3.300781 C -8.625 -3.757812 -8.53125 -4.164062 -8.347656 -4.511719 C -8.160156 -4.859375 -7.894531 -5.144531 -7.542969 -5.375 C -7.195312 -5.597656 -6.769531 -5.777344 -6.265625 -5.90625 C -5.765625 -6.035156 -5.085938 -6.101562 -4.234375 -6.101562 C -3.226562 -6.101562 -2.414062 -5.996094 -1.796875 -5.789062 C -1.175781 -5.582031 -0.699219 -5.273438 -0.359375 -4.859375 C -0.0234375 -4.449219 0.148438 -3.925781 0.148438 -3.296875 C 0.148438 -2.46875 -0.152344 -1.820312 -0.742188 -1.347656 C -1.460938 -0.78125 -2.621094 -0.5 -4.234375 -0.5 M -4.234375 -1.582031 C -2.824219 -1.582031 -1.886719 -1.746094 -1.421875 -2.078125 C -0.953125 -2.40625 -0.71875 -2.8125 -0.71875 -3.296875 C -0.71875 -3.78125 -0.953125 -4.191406 -1.421875 -4.519531 C -1.890625 -4.851562 -2.828125 -5.015625 -4.234375 -5.015625 C -5.648438 -5.015625 -6.589844 -4.851562 -7.054688 -4.519531 C -7.519531 -4.191406 -7.75 -3.78125 -7.75 -3.289062 C -7.75 -2.800781 -7.546875 -2.414062 -7.136719 -2.128906 C -6.613281 -1.765625 -5.644531 -1.582031 -4.234375 -1.582031 Z M -4.234375 -1.582031 "/>
</g>
<g id="glyph-1-1">
<path d="M 0 -1.089844 L -1.203125 -1.089844 L -1.199219 -2.289062 L 0 -2.289062 Z M 0 -1.089844 "/>
</g>
<g id="glyph-1-2">
<path d="M 0 -4.46875 L 0 -3.414062 L -6.71875 -3.417969 C -6.476562 -3.160156 -6.234375 -2.828125 -5.992188 -2.417969 C -5.75 -2.003906 -5.570312 -1.636719 -5.449219 -1.308594 L -6.46875 -1.308594 C -6.746094 -1.894531 -7.082031 -2.410156 -7.476562 -2.855469 C -7.871094 -3.292969 -8.253906 -3.605469 -8.625 -3.792969 L -8.625 -4.472656 Z M 0 -4.46875 "/>
</g>
<g id="glyph-1-3">
<path d="M -1.011719 -6.039062 L 0 -6.039062 L 0 -0.363281 C -0.253906 -0.355469 -0.5 -0.394531 -0.734375 -0.488281 C -1.117188 -0.628906 -1.5 -0.863281 -1.875 -1.179688 C -2.25 -1.5 -2.683594 -1.957031 -3.175781 -2.5625 C -3.941406 -3.492188 -4.546875 -4.125 -4.996094 -4.453125 C -5.441406 -4.78125 -5.867188 -4.945312 -6.265625 -4.945312 C -6.679688 -4.945312 -7.035156 -4.796875 -7.320312 -4.496094 C -7.609375 -4.199219 -7.75 -3.808594 -7.75 -3.328125 C -7.75 -2.820312 -7.601562 -2.414062 -7.296875 -2.109375 C -6.992188 -1.804688 -6.570312 -1.648438 -6.03125 -1.648438 L -6.140625 -0.5625 C -6.949219 -0.636719 -7.566406 -0.917969 -7.988281 -1.402344 C -8.414062 -1.882812 -8.625 -2.535156 -8.625 -3.351562 C -8.625 -4.175781 -8.398438 -4.828125 -7.9375 -5.308594 C -7.484375 -5.789062 -6.914062 -6.03125 -6.242188 -6.03125 C -5.894531 -6.03125 -5.558594 -5.957031 -5.226562 -5.820312 C -4.894531 -5.675781 -4.542969 -5.445312 -4.179688 -5.117188 C -3.808594 -4.792969 -3.304688 -4.25 -2.664062 -3.492188 C -2.132812 -2.859375 -1.773438 -2.453125 -1.585938 -2.273438 C -1.394531 -2.09375 -1.203125 -1.945312 -1.011719 -1.828125 Z M -1.011719 -6.039062 "/>
</g>
<g id="glyph-1-4">
<path d="M -2.265625 -0.503906 L -2.40625 -1.558594 C -1.8125 -1.679688 -1.378906 -1.886719 -1.117188 -2.175781 C -0.851562 -2.46875 -0.71875 -2.820312 -0.71875 -3.242188 C -0.71875 -3.734375 -0.890625 -4.15625 -1.234375 -4.496094 C -1.578125 -4.839844 -2.003906 -5.007812 -2.511719 -5.007812 C -2.996094 -5.007812 -3.398438 -4.851562 -3.710938 -4.535156 C -4.027344 -4.21875 -4.183594 -3.816406 -4.183594 -3.328125 C -4.183594 -3.128906 -4.144531 -2.878906 -4.066406 -2.585938 L -4.992188 -2.703125 C -4.984375 -2.773438 -4.980469 -2.828125 -4.980469 -2.871094 C -4.980469 -3.320312 -5.097656 -3.722656 -5.332031 -4.085938 C -5.566406 -4.441406 -5.925781 -4.621094 -6.414062 -4.625 C -6.804688 -4.621094 -7.121094 -4.492188 -7.375 -4.230469 C -7.628906 -3.96875 -7.757812 -3.628906 -7.757812 -3.21875 C -7.757812 -2.804688 -7.628906 -2.464844 -7.371094 -2.191406 C -7.113281 -1.917969 -6.726562 -1.742188 -6.210938 -1.664062 L -6.398438 -0.609375 C -7.105469 -0.738281 -7.652344 -1.03125 -8.042969 -1.488281 C -8.429688 -1.945312 -8.625 -2.515625 -8.625 -3.195312 C -8.625 -3.664062 -8.523438 -4.09375 -8.324219 -4.488281 C -8.121094 -4.882812 -7.847656 -5.183594 -7.5 -5.394531 C -7.152344 -5.601562 -6.78125 -5.707031 -6.390625 -5.707031 C -6.019531 -5.707031 -5.683594 -5.609375 -5.378906 -5.40625 C -5.074219 -5.210938 -4.832031 -4.914062 -4.652344 -4.523438 C -4.535156 -5.03125 -4.292969 -5.425781 -3.921875 -5.707031 C -3.554688 -5.988281 -3.089844 -6.128906 -2.535156 -6.128906 C -1.785156 -6.128906 -1.152344 -5.855469 -0.628906 -5.308594 C -0.109375 -4.761719 0.152344 -4.070312 0.152344 -3.234375 C 0.152344 -2.480469 -0.0742188 -1.855469 -0.519531 -1.355469 C -0.96875 -0.859375 -1.554688 -0.574219 -2.265625 -0.503906 Z M -2.265625 -0.503906 "/>
</g>
<g id="glyph-1-5">
<path d="M 0 -0.925781 L -8.589844 -0.925781 L -8.589844 -3.886719 C -8.589844 -4.550781 -8.546875 -5.0625 -8.46875 -5.414062 C -8.351562 -5.90625 -8.148438 -6.324219 -7.851562 -6.675781 C -7.46875 -7.125 -6.980469 -7.464844 -6.382812 -7.691406 C -5.789062 -7.914062 -5.105469 -8.027344 -4.339844 -8.027344 C -3.6875 -8.027344 -3.109375 -7.953125 -2.605469 -7.796875 C -2.101562 -7.648438 -1.6875 -7.449219 -1.355469 -7.210938 C -1.027344 -6.972656 -0.765625 -6.714844 -0.578125 -6.429688 C -0.386719 -6.148438 -0.242188 -5.804688 -0.144531 -5.40625 C -0.0507812 -5.003906 0 -4.542969 0 -4.023438 L 0 -0.925781 M -1.011719 -2.0625 L -1.011719 -3.898438 C -1.011719 -4.460938 -1.066406 -4.90625 -1.171875 -5.230469 C -1.277344 -5.550781 -1.425781 -5.808594 -1.617188 -6 C -1.886719 -6.269531 -2.25 -6.480469 -2.703125 -6.628906 C -3.160156 -6.78125 -3.710938 -6.855469 -4.359375 -6.855469 C -5.257812 -6.855469 -5.949219 -6.707031 -6.429688 -6.414062 C -6.914062 -6.117188 -7.234375 -5.757812 -7.398438 -5.339844 C -7.515625 -5.035156 -7.578125 -4.542969 -7.578125 -3.867188 L -7.578125 -2.0625 Z M -1.011719 -2.0625 "/>
</g>
<g id="glyph-1-6">
<path d="M -2.003906 -5.050781 L -1.867188 -6.140625 C -1.230469 -5.96875 -0.738281 -5.648438 -0.386719 -5.1875 C -0.0351562 -4.71875 0.140625 -4.125 0.140625 -3.40625 C 0.140625 -2.492188 -0.140625 -1.773438 -0.699219 -1.238281 C -1.261719 -0.707031 -2.046875 -0.441406 -3.058594 -0.441406 C -4.105469 -0.441406 -4.917969 -0.710938 -5.496094 -1.25 C -6.074219 -1.789062 -6.363281 -2.484375 -6.363281 -3.347656 C -6.363281 -4.179688 -6.078125 -4.859375 -5.515625 -5.382812 C -4.945312 -5.914062 -4.148438 -6.175781 -3.121094 -6.175781 C -3.058594 -6.175781 -2.964844 -6.171875 -2.839844 -6.171875 L -2.84375 -1.53125 C -2.15625 -1.566406 -1.632812 -1.761719 -1.269531 -2.109375 C -0.90625 -2.457031 -0.726562 -2.890625 -0.726562 -3.410156 C -0.726562 -3.796875 -0.828125 -4.125 -1.03125 -4.398438 C -1.234375 -4.671875 -1.558594 -4.890625 -2.003906 -5.050781 M -3.710938 -1.589844 L -3.707031 -5.0625 C -4.230469 -5.015625 -4.625 -4.882812 -4.886719 -4.664062 C -5.292969 -4.328125 -5.496094 -3.890625 -5.496094 -3.359375 C -5.496094 -2.871094 -5.332031 -2.464844 -5.007812 -2.136719 C -4.683594 -1.804688 -4.25 -1.625 -3.710938 -1.589844 Z M -3.710938 -1.589844 "/>
</g>
<g id="glyph-1-7">
<path d="M 0 -0.789062 L -6.222656 -0.792969 L -6.222656 -1.742188 L -5.335938 -1.742188 C -6.019531 -2.195312 -6.363281 -2.855469 -6.363281 -3.722656 C -6.363281 -4.09375 -6.296875 -4.441406 -6.160156 -4.753906 C -6.027344 -5.070312 -5.847656 -5.304688 -5.632812 -5.460938 C -5.410156 -5.617188 -5.152344 -5.726562 -4.851562 -5.789062 C -4.65625 -5.828125 -4.3125 -5.847656 -3.824219 -5.847656 L 0 -5.847656 L 0 -4.792969 L -3.785156 -4.792969 C -4.214844 -4.792969 -4.535156 -4.75 -4.75 -4.671875 C -4.960938 -4.585938 -5.132812 -4.441406 -5.257812 -4.234375 C -5.386719 -4.023438 -5.449219 -3.78125 -5.449219 -3.5 C -5.449219 -3.046875 -5.304688 -2.660156 -5.023438 -2.335938 C -4.734375 -2.007812 -4.195312 -1.847656 -3.398438 -1.847656 L 0 -1.84375 Z M 0 -0.789062 "/>
</g>
<g id="glyph-1-8">
<path d="M -1.859375 -0.371094 L -2.023438 -1.414062 C -1.601562 -1.46875 -1.28125 -1.632812 -1.058594 -1.902344 C -0.835938 -2.167969 -0.726562 -2.542969 -0.726562 -3.023438 C -0.726562 -3.507812 -0.824219 -3.867188 -1.023438 -4.101562 C -1.21875 -4.335938 -1.449219 -4.453125 -1.714844 -4.453125 C -1.953125 -4.453125 -2.140625 -4.347656 -2.277344 -4.140625 C -2.371094 -3.996094 -2.492188 -3.640625 -2.636719 -3.0625 C -2.832031 -2.289062 -3 -1.753906 -3.144531 -1.457031 C -3.285156 -1.15625 -3.484375 -0.929688 -3.734375 -0.777344 C -3.988281 -0.621094 -4.265625 -0.546875 -4.570312 -0.546875 C -4.847656 -0.546875 -5.105469 -0.609375 -5.339844 -0.734375 C -5.578125 -0.863281 -5.773438 -1.035156 -5.929688 -1.253906 C -6.050781 -1.417969 -6.152344 -1.640625 -6.238281 -1.925781 C -6.320312 -2.207031 -6.363281 -2.511719 -6.363281 -2.835938 C -6.363281 -3.324219 -6.292969 -3.753906 -6.152344 -4.121094 C -6.011719 -4.492188 -5.820312 -4.761719 -5.582031 -4.9375 C -5.339844 -5.113281 -5.019531 -5.234375 -4.617188 -5.304688 L -4.476562 -4.273438 C -4.796875 -4.226562 -5.046875 -4.089844 -5.226562 -3.863281 C -5.40625 -3.640625 -5.496094 -3.324219 -5.496094 -2.914062 C -5.496094 -2.425781 -5.414062 -2.082031 -5.257812 -1.875 C -5.09375 -1.667969 -4.90625 -1.566406 -4.695312 -1.566406 C -4.554688 -1.566406 -4.433594 -1.605469 -4.324219 -1.695312 C -4.210938 -1.777344 -4.117188 -1.914062 -4.042969 -2.097656 C -4.003906 -2.203125 -3.914062 -2.515625 -3.773438 -3.03125 C -3.574219 -3.773438 -3.410156 -4.296875 -3.285156 -4.589844 C -3.15625 -4.886719 -2.972656 -5.117188 -2.730469 -5.285156 C -2.488281 -5.453125 -2.1875 -5.535156 -1.828125 -5.539062 C -1.476562 -5.535156 -1.144531 -5.433594 -0.835938 -5.230469 C -0.523438 -5.023438 -0.285156 -4.726562 -0.113281 -4.34375 C 0.0546875 -3.953125 0.140625 -3.515625 0.140625 -3.03125 C 0.140625 -2.21875 -0.0273438 -1.605469 -0.363281 -1.179688 C -0.699219 -0.757812 -1.199219 -0.488281 -1.859375 -0.371094 Z M -1.859375 -0.371094 "/>
</g>
<g id="glyph-1-9">
<path d="M -7.375 -0.796875 L -8.589844 -0.796875 L -8.589844 -1.851562 L -7.375 -1.851562 L -7.375 -0.796875 M 0 -0.796875 L -6.222656 -0.796875 L -6.222656 -1.851562 L 0 -1.851562 Z M 0 -0.796875 "/>
</g>
<g id="glyph-1-10">
<path d="M -0.941406 -3.09375 L -0.0117188 -3.246094 C 0.0507812 -2.949219 0.0820312 -2.683594 0.0820312 -2.449219 C 0.0820312 -2.066406 0.0195312 -1.769531 -0.0976562 -1.558594 C -0.21875 -1.347656 -0.378906 -1.199219 -0.578125 -1.113281 C -0.773438 -1.027344 -1.1875 -0.984375 -1.820312 -0.984375 L -5.402344 -0.984375 L -5.402344 -0.210938 L -6.222656 -0.210938 L -6.222656 -0.984375 L -7.765625 -0.984375 L -8.398438 -2.035156 L -6.222656 -2.035156 L -6.222656 -3.09375 L -5.402344 -3.09375 L -5.402344 -2.035156 L -1.761719 -2.03125 C -1.460938 -2.03125 -1.269531 -2.050781 -1.183594 -2.089844 C -1.097656 -2.125 -1.027344 -2.1875 -0.976562 -2.269531 C -0.925781 -2.355469 -0.902344 -2.472656 -0.902344 -2.632812 C -0.902344 -2.75 -0.914062 -2.902344 -0.941406 -3.09375 Z M -0.941406 -3.09375 "/>
</g>
<g id="glyph-1-11">
<path d="M 2.398438 -0.742188 L 1.40625 -0.625 C 1.46875 -0.855469 1.5 -1.058594 1.5 -1.230469 C 1.5 -1.464844 1.460938 -1.652344 1.382812 -1.792969 C 1.304688 -1.933594 1.195312 -2.046875 1.054688 -2.140625 C 0.949219 -2.203125 0.6875 -2.3125 0.269531 -2.460938 C 0.210938 -2.480469 0.125 -2.511719 0.0117188 -2.554688 L -6.222656 -0.195312 L -6.222656 -1.332031 L -2.617188 -2.625 C -2.164062 -2.792969 -1.679688 -2.941406 -1.175781 -3.078125 C -1.660156 -3.195312 -2.132812 -3.339844 -2.59375 -3.507812 L -6.222656 -4.839844 L -6.222656 -5.894531 L 0.105469 -3.527344 C 0.789062 -3.273438 1.261719 -3.078125 1.519531 -2.9375 C 1.863281 -2.746094 2.121094 -2.53125 2.28125 -2.289062 C 2.445312 -2.046875 2.523438 -1.757812 2.523438 -1.421875 C 2.523438 -1.21875 2.480469 -0.992188 2.398438 -0.742188 Z M 2.398438 -0.742188 "/>
</g>
<g id="glyph-2-0">
<path d="M 1.039062 -10.308594 L 4.84375 -10.308594 C 5.703125 -10.308594 6.355469 -10.242188 6.804688 -10.109375 C 7.410156 -9.933594 7.929688 -9.617188 8.359375 -9.160156 C 8.792969 -8.707031 9.121094 -8.148438 9.34375 -7.492188 C 9.570312 -6.832031 9.683594 -6.019531 9.683594 -5.054688 C 9.683594 -4.207031 9.578125 -3.476562 9.367188 -2.863281 C 9.109375 -2.113281 8.738281 -1.503906 8.261719 -1.039062 C 7.902344 -0.6875 7.414062 -0.414062 6.800781 -0.21875 C 6.339844 -0.0742188 5.726562 0 4.957031 0 L 1.039062 0 L 1.039062 -10.308594 M 3.121094 -8.5625 L 3.121094 -1.738281 L 4.675781 -1.738281 C 5.257812 -1.738281 5.675781 -1.769531 5.933594 -1.835938 C 6.273438 -1.917969 6.550781 -2.0625 6.773438 -2.265625 C 6.996094 -2.464844 7.179688 -2.796875 7.320312 -3.257812 C 7.460938 -3.71875 7.53125 -4.351562 7.53125 -5.148438 C 7.53125 -5.945312 7.460938 -6.554688 7.320312 -6.980469 C 7.179688 -7.410156 6.980469 -7.742188 6.730469 -7.980469 C 6.476562 -8.21875 6.15625 -8.382812 5.765625 -8.464844 C 5.476562 -8.53125 4.90625 -8.5625 4.058594 -8.5625 Z M 3.121094 -8.5625 "/>
</g>
<g id="glyph-2-1">
<path d="M 5.359375 -2.375 L 7.328125 -2.046875 C 7.074219 -1.324219 6.671875 -0.773438 6.128906 -0.398438 C 5.582031 -0.0195312 4.898438 0.167969 4.078125 0.167969 C 2.78125 0.167969 1.820312 -0.253906 1.195312 -1.105469 C 0.703125 -1.785156 0.457031 -2.640625 0.457031 -3.675781 C 0.457031 -4.914062 0.78125 -5.882812 1.425781 -6.585938 C 2.074219 -7.285156 2.890625 -7.636719 3.882812 -7.636719 C 4.992188 -7.636719 5.867188 -7.269531 6.511719 -6.535156 C 7.152344 -5.800781 7.460938 -4.679688 7.433594 -3.164062 L 2.480469 -3.164062 C 2.496094 -2.578125 2.65625 -2.121094 2.960938 -1.796875 C 3.265625 -1.46875 3.644531 -1.308594 4.097656 -1.308594 C 4.410156 -1.308594 4.667969 -1.390625 4.878906 -1.5625 C 5.089844 -1.730469 5.25 -2 5.359375 -2.375 M 5.46875 -4.375 C 5.457031 -4.945312 5.308594 -5.378906 5.027344 -5.675781 C 4.746094 -5.976562 4.402344 -6.125 4 -6.125 C 3.570312 -6.125 3.214844 -5.96875 2.933594 -5.652344 C 2.652344 -5.339844 2.511719 -4.914062 2.515625 -4.375 Z M 5.46875 -4.375 "/>
</g>
<g id="glyph-2-2">
<path d="M 7.824219 0 L 5.851562 0 L 5.851562 -3.8125 C 5.851562 -4.617188 5.808594 -5.136719 5.722656 -5.375 C 5.640625 -5.613281 5.5 -5.796875 5.3125 -5.925781 C 5.121094 -6.058594 4.894531 -6.125 4.625 -6.125 C 4.285156 -6.125 3.976562 -6.03125 3.707031 -5.84375 C 3.433594 -5.65625 3.246094 -5.40625 3.144531 -5.097656 C 3.046875 -4.789062 2.996094 -4.214844 2.996094 -3.382812 L 2.996094 0 L 1.019531 0 L 1.019531 -7.46875 L 2.855469 -7.46875 L 2.855469 -6.371094 C 3.507812 -7.214844 4.328125 -7.636719 5.316406 -7.636719 C 5.75 -7.636719 6.148438 -7.558594 6.511719 -7.398438 C 6.871094 -7.242188 7.144531 -7.042969 7.328125 -6.800781 C 7.515625 -6.554688 7.644531 -6.277344 7.714844 -5.96875 C 7.789062 -5.660156 7.824219 -5.21875 7.824219 -4.640625 Z M 7.824219 0 "/>
</g>
<g id="glyph-2-3">
<path d="M 0.335938 -2.128906 L 2.320312 -2.433594 C 2.40625 -2.046875 2.574219 -1.757812 2.832031 -1.558594 C 3.089844 -1.359375 3.453125 -1.257812 3.917969 -1.257812 C 4.425781 -1.257812 4.8125 -1.351562 5.070312 -1.539062 C 5.242188 -1.671875 5.328125 -1.847656 5.328125 -2.066406 C 5.328125 -2.21875 5.28125 -2.339844 5.1875 -2.441406 C 5.089844 -2.535156 4.871094 -2.621094 4.527344 -2.699219 C 2.933594 -3.050781 1.925781 -3.371094 1.496094 -3.664062 C 0.90625 -4.066406 0.613281 -4.625 0.613281 -5.34375 C 0.613281 -5.992188 0.867188 -6.535156 1.378906 -6.976562 C 1.890625 -7.414062 2.679688 -7.636719 3.753906 -7.636719 C 4.777344 -7.636719 5.535156 -7.46875 6.03125 -7.136719 C 6.53125 -6.804688 6.871094 -6.3125 7.058594 -5.660156 L 5.195312 -5.316406 C 5.117188 -5.605469 4.964844 -5.828125 4.742188 -5.984375 C 4.519531 -6.136719 4.203125 -6.214844 3.789062 -6.214844 C 3.269531 -6.214844 2.898438 -6.144531 2.671875 -5.996094 C 2.523438 -5.894531 2.445312 -5.761719 2.445312 -5.597656 C 2.445312 -5.457031 2.511719 -5.335938 2.644531 -5.238281 C 2.820312 -5.105469 3.4375 -4.921875 4.488281 -4.683594 C 5.542969 -4.445312 6.277344 -4.152344 6.695312 -3.804688 C 7.105469 -3.453125 7.3125 -2.960938 7.3125 -2.335938 C 7.3125 -1.648438 7.027344 -1.0625 6.453125 -0.570312 C 5.882812 -0.078125 5.035156 0.167969 3.917969 0.167969 C 2.898438 0.167969 2.09375 -0.0390625 1.5 -0.449219 C 0.910156 -0.863281 0.519531 -1.421875 0.335938 -2.128906 Z M 0.335938 -2.128906 "/>
</g>
<g id="glyph-2-4">
<path d="M 1.035156 -8.480469 L 1.035156 -10.308594 L 3.007812 -10.308594 L 3.007812 -8.480469 L 1.035156 -8.480469 M 1.035156 0 L 1.035156 -7.46875 L 3.007812 -7.46875 L 3.007812 0 Z M 1.035156 0 "/>
</g>
<g id="glyph-2-5">
<path d="M 4.457031 -7.46875 L 4.457031 -5.890625 L 3.109375 -5.890625 L 3.109375 -2.882812 C 3.109375 -2.273438 3.121094 -1.917969 3.144531 -1.816406 C 3.171875 -1.714844 3.230469 -1.632812 3.320312 -1.566406 C 3.414062 -1.503906 3.523438 -1.46875 3.65625 -1.46875 C 3.839844 -1.46875 4.105469 -1.53125 4.449219 -1.660156 L 4.621094 -0.125 C 4.160156 0.0703125 3.640625 0.167969 3.058594 0.167969 C 2.703125 0.167969 2.382812 0.109375 2.09375 -0.0117188 C 1.808594 -0.128906 1.597656 -0.285156 1.464844 -0.472656 C 1.332031 -0.664062 1.238281 -0.921875 1.1875 -1.246094 C 1.144531 -1.472656 1.125 -1.9375 1.125 -2.636719 L 1.125 -5.890625 L 0.21875 -5.890625 L 0.21875 -7.46875 L 1.125 -7.46875 L 1.125 -8.949219 L 3.109375 -10.105469 L 3.109375 -7.46875 Z M 4.457031 -7.46875 "/>
</g>
<g id="glyph-2-6">
<path d="M 0.0976562 -7.46875 L 2.199219 -7.46875 L 3.988281 -2.164062 L 5.730469 -7.46875 L 7.777344 -7.46875 L 5.140625 -0.28125 L 4.667969 1.019531 C 4.496094 1.457031 4.328125 1.789062 4.171875 2.019531 C 4.015625 2.246094 3.835938 2.433594 3.632812 2.578125 C 3.425781 2.71875 3.175781 2.832031 2.878906 2.910156 C 2.582031 2.992188 2.246094 3.03125 1.871094 3.03125 C 1.492188 3.03125 1.117188 2.992188 0.753906 2.910156 L 0.578125 1.363281 C 0.886719 1.425781 1.164062 1.457031 1.414062 1.457031 C 1.871094 1.457031 2.210938 1.320312 2.433594 1.050781 C 2.652344 0.78125 2.820312 0.4375 2.9375 0.0195312 Z M 0.0976562 -7.46875 "/>
</g>
<g id="glyph-2-7">
</g>
<g id="glyph-2-8">
<path d="M 7.644531 -3.789062 L 9.660156 -3.148438 C 9.351562 -2.023438 8.835938 -1.1875 8.117188 -0.644531 C 7.398438 -0.0976562 6.484375 0.175781 5.378906 0.175781 C 4.011719 0.175781 2.886719 -0.292969 2.003906 -1.226562 C 1.121094 -2.160156 0.683594 -3.441406 0.683594 -5.0625 C 0.683594 -6.777344 1.125 -8.109375 2.011719 -9.058594 C 2.898438 -10.007812 4.0625 -10.484375 5.503906 -10.484375 C 6.765625 -10.484375 7.789062 -10.109375 8.578125 -9.367188 C 9.046875 -8.925781 9.398438 -8.292969 9.632812 -7.46875 L 7.574219 -6.976562 C 7.449219 -7.507812 7.195312 -7.929688 6.808594 -8.242188 C 6.421875 -8.550781 5.953125 -8.703125 5.398438 -8.703125 C 4.636719 -8.703125 4.015625 -8.429688 3.539062 -7.882812 C 3.0625 -7.332031 2.828125 -6.445312 2.828125 -5.21875 C 2.828125 -3.914062 3.0625 -2.984375 3.53125 -2.433594 C 4 -1.878906 4.609375 -1.601562 5.359375 -1.601562 C 5.910156 -1.601562 6.386719 -1.777344 6.785156 -2.128906 C 7.183594 -2.480469 7.46875 -3.035156 7.644531 -3.789062 Z M 7.644531 -3.789062 "/>
</g>
<g id="glyph-2-9">
<path d="M 0.578125 -3.839844 C 0.578125 -4.496094 0.738281 -5.128906 1.0625 -5.746094 C 1.386719 -6.359375 1.84375 -6.828125 2.4375 -7.152344 C 3.027344 -7.472656 3.691406 -7.636719 4.421875 -7.636719 C 5.550781 -7.636719 6.476562 -7.269531 7.199219 -6.535156 C 7.921875 -5.800781 8.28125 -4.875 8.28125 -3.753906 C 8.28125 -2.625 7.917969 -1.6875 7.1875 -0.945312 C 6.460938 -0.203125 5.542969 0.167969 4.4375 0.167969 C 3.753906 0.167969 3.097656 0.015625 2.476562 -0.296875 C 1.855469 -0.605469 1.386719 -1.058594 1.0625 -1.65625 C 0.738281 -2.253906 0.578125 -2.980469 0.578125 -3.839844 M 2.601562 -3.734375 C 2.601562 -2.992188 2.777344 -2.425781 3.128906 -2.03125 C 3.480469 -1.636719 3.914062 -1.441406 4.429688 -1.441406 C 4.945312 -1.441406 5.378906 -1.636719 5.726562 -2.03125 C 6.074219 -2.425781 6.25 -2.996094 6.25 -3.746094 C 6.25 -4.480469 6.074219 -5.042969 5.726562 -5.433594 C 5.378906 -5.828125 4.945312 -6.027344 4.429688 -6.027344 C 3.914062 -6.027344 3.480469 -5.828125 3.128906 -5.433594 C 2.777344 -5.042969 2.601562 -4.472656 2.601562 -3.734375 Z M 2.601562 -3.734375 "/>
</g>
<g id="glyph-2-10">
<path d="M 0.886719 -7.46875 L 2.707031 -7.46875 L 2.707031 -6.449219 C 3.359375 -7.238281 4.132812 -7.636719 5.035156 -7.636719 C 5.511719 -7.636719 5.925781 -7.539062 6.277344 -7.339844 C 6.628906 -7.144531 6.917969 -6.847656 7.144531 -6.449219 C 7.472656 -6.847656 7.824219 -7.144531 8.207031 -7.339844 C 8.585938 -7.539062 8.992188 -7.636719 9.421875 -7.636719 C 9.96875 -7.636719 10.433594 -7.523438 10.8125 -7.300781 C 11.195312 -7.078125 11.476562 -6.753906 11.664062 -6.320312 C 11.800781 -6.003906 11.867188 -5.488281 11.867188 -4.773438 L 11.867188 0 L 9.894531 0 L 9.894531 -4.269531 C 9.894531 -5.007812 9.824219 -5.488281 9.6875 -5.703125 C 9.507812 -5.984375 9.226562 -6.125 8.84375 -6.125 C 8.570312 -6.125 8.308594 -6.039062 8.066406 -5.871094 C 7.820312 -5.703125 7.644531 -5.453125 7.539062 -5.128906 C 7.429688 -4.804688 7.375 -4.289062 7.375 -3.585938 L 7.375 0 L 5.398438 0 L 5.398438 -4.09375 C 5.398438 -4.820312 5.363281 -5.289062 5.292969 -5.5 C 5.222656 -5.710938 5.113281 -5.867188 4.96875 -5.96875 C 4.820312 -6.074219 4.621094 -6.125 4.367188 -6.125 C 4.0625 -6.125 3.789062 -6.042969 3.542969 -5.878906 C 3.300781 -5.714844 3.125 -5.476562 3.019531 -5.167969 C 2.914062 -4.859375 2.863281 -4.34375 2.863281 -3.628906 L 2.863281 0 L 0.886719 0 Z M 0.886719 -7.46875 "/>
</g>
<g id="glyph-2-11">
<path d="M 0.976562 -7.46875 L 2.820312 -7.46875 L 2.820312 -6.371094 C 3.058594 -6.746094 3.382812 -7.050781 3.789062 -7.285156 C 4.199219 -7.519531 4.648438 -7.636719 5.148438 -7.636719 C 6.015625 -7.636719 6.75 -7.296875 7.355469 -6.617188 C 7.960938 -5.9375 8.261719 -4.988281 8.261719 -3.777344 C 8.261719 -2.527344 7.957031 -1.558594 7.347656 -0.867188 C 6.738281 -0.175781 6 0.167969 5.132812 0.167969 C 4.71875 0.167969 4.347656 0.0859375 4.011719 -0.078125 C 3.675781 -0.242188 3.324219 -0.523438 2.953125 -0.921875 L 2.953125 2.839844 L 0.976562 2.839844 L 0.976562 -7.46875 M 2.933594 -3.859375 C 2.933594 -3.019531 3.097656 -2.402344 3.429688 -2 C 3.765625 -1.597656 4.167969 -1.398438 4.648438 -1.398438 C 5.105469 -1.398438 5.488281 -1.582031 5.792969 -1.949219 C 6.097656 -2.320312 6.25 -2.921875 6.25 -3.761719 C 6.25 -4.542969 6.09375 -5.125 5.78125 -5.503906 C 5.464844 -5.886719 5.078125 -6.074219 4.613281 -6.074219 C 4.128906 -6.074219 3.730469 -5.886719 3.410156 -5.515625 C 3.089844 -5.144531 2.933594 -4.589844 2.933594 -3.859375 Z M 2.933594 -3.859375 "/>
</g>
<g id="glyph-2-12">
<path d="M 2.511719 -5.1875 L 0.71875 -5.511719 C 0.917969 -6.234375 1.265625 -6.769531 1.757812 -7.117188 C 2.25 -7.460938 2.980469 -7.636719 3.953125 -7.636719 C 4.832031 -7.636719 5.488281 -7.53125 5.921875 -7.324219 C 6.351562 -7.113281 6.65625 -6.847656 6.832031 -6.527344 C 7.007812 -6.207031 7.09375 -5.617188 7.09375 -4.761719 L 7.074219 -2.453125 C 7.074219 -1.796875 7.105469 -1.3125 7.167969 -1 C 7.230469 -0.691406 7.351562 -0.355469 7.523438 0 L 5.570312 0 C 5.515625 -0.132812 5.453125 -0.324219 5.378906 -0.582031 C 5.347656 -0.699219 5.324219 -0.777344 5.308594 -0.816406 C 4.972656 -0.488281 4.609375 -0.242188 4.226562 -0.078125 C 3.839844 0.0859375 3.429688 0.167969 2.996094 0.167969 C 2.226562 0.167969 1.621094 -0.0390625 1.175781 -0.457031 C 0.734375 -0.875 0.511719 -1.402344 0.511719 -2.039062 C 0.511719 -2.460938 0.613281 -2.835938 0.816406 -3.167969 C 1.015625 -3.496094 1.300781 -3.75 1.664062 -3.925781 C 2.027344 -4.101562 2.550781 -4.257812 3.234375 -4.386719 C 4.15625 -4.5625 4.796875 -4.722656 5.152344 -4.871094 L 5.152344 -5.070312 C 5.152344 -5.449219 5.058594 -5.71875 4.871094 -5.882812 C 4.683594 -6.042969 4.332031 -6.125 3.8125 -6.125 C 3.460938 -6.125 3.183594 -6.054688 2.988281 -5.917969 C 2.792969 -5.777344 2.632812 -5.535156 2.511719 -5.1875 M 5.152344 -3.585938 C 4.902344 -3.5 4.5 -3.402344 3.953125 -3.285156 C 3.402344 -3.167969 3.042969 -3.050781 2.875 -2.9375 C 2.617188 -2.757812 2.488281 -2.523438 2.488281 -2.242188 C 2.488281 -1.964844 2.59375 -1.726562 2.796875 -1.527344 C 3.003906 -1.324219 3.265625 -1.222656 3.585938 -1.222656 C 3.941406 -1.222656 4.28125 -1.339844 4.605469 -1.574219 C 4.84375 -1.753906 5 -1.972656 5.078125 -2.230469 C 5.128906 -2.398438 5.152344 -2.71875 5.152344 -3.191406 Z M 5.152344 -3.585938 "/>
</g>
<g id="glyph-2-13">
<path d="M 2.925781 0 L 0.949219 0 L 0.949219 -7.46875 L 2.785156 -7.46875 L 2.785156 -6.40625 C 3.097656 -6.90625 3.378906 -7.238281 3.632812 -7.398438 C 3.882812 -7.554688 4.167969 -7.636719 4.484375 -7.636719 C 4.9375 -7.636719 5.371094 -7.511719 5.785156 -7.261719 L 5.175781 -5.539062 C 4.84375 -5.757812 4.53125 -5.863281 4.246094 -5.863281 C 3.96875 -5.863281 3.734375 -5.789062 3.542969 -5.636719 C 3.351562 -5.484375 3.199219 -5.207031 3.089844 -4.808594 C 2.980469 -4.410156 2.925781 -3.578125 2.925781 -2.304688 Z M 2.925781 0 "/>
</g>
<g id="glyph-2-14">
<path d="M 1.414062 -5.492188 L 1.414062 -7.46875 L 3.390625 -7.46875 L 3.390625 -5.492188 L 1.414062 -5.492188 M 1.414062 0 L 1.414062 -1.976562 L 3.390625 -1.976562 L 3.390625 0 Z M 1.414062 0 "/>
</g>
<g id="glyph-2-15">
<path d="M 7.542969 -5.257812 L 5.597656 -4.90625 C 5.53125 -5.296875 5.382812 -5.589844 5.148438 -5.785156 C 4.917969 -5.984375 4.617188 -6.082031 4.246094 -6.082031 C 3.753906 -6.082031 3.363281 -5.910156 3.070312 -5.570312 C 2.777344 -5.230469 2.628906 -4.664062 2.628906 -3.867188 C 2.628906 -2.980469 2.777344 -2.355469 3.074219 -1.988281 C 3.375 -1.625 3.773438 -1.441406 4.273438 -1.441406 C 4.648438 -1.441406 4.957031 -1.546875 5.195312 -1.761719 C 5.433594 -1.972656 5.605469 -2.339844 5.703125 -2.863281 L 7.644531 -2.53125 C 7.441406 -1.640625 7.054688 -0.96875 6.484375 -0.511719 C 5.910156 -0.0585938 5.144531 0.167969 4.183594 0.167969 C 3.089844 0.167969 2.21875 -0.175781 1.570312 -0.863281 C 0.921875 -1.554688 0.597656 -2.507812 0.597656 -3.726562 C 0.597656 -4.960938 0.921875 -5.917969 1.574219 -6.605469 C 2.226562 -7.292969 3.109375 -7.636719 4.21875 -7.636719 C 5.128906 -7.636719 5.851562 -7.441406 6.386719 -7.046875 C 6.925781 -6.65625 7.308594 -6.0625 7.542969 -5.257812 Z M 7.542969 -5.257812 "/>
</g>
<g id="glyph-2-16">
<path d="M 0.167969 -7.46875 L 1.265625 -7.46875 L 1.265625 -8.03125 C 1.265625 -8.65625 1.332031 -9.125 1.464844 -9.4375 C 1.597656 -9.746094 1.84375 -9.996094 2.203125 -10.191406 C 2.5625 -10.386719 3.015625 -10.484375 3.566406 -10.484375 C 4.128906 -10.484375 4.679688 -10.398438 5.21875 -10.230469 L 4.949219 -8.851562 C 4.636719 -8.925781 4.332031 -8.964844 4.042969 -8.964844 C 3.757812 -8.964844 3.550781 -8.898438 3.425781 -8.765625 C 3.304688 -8.632812 3.242188 -8.375 3.242188 -7.996094 L 3.242188 -7.46875 L 4.71875 -7.46875 L 4.71875 -5.914062 L 3.242188 -5.914062 L 3.242188 0 L 1.265625 0 L 1.265625 -5.914062 L 0.167969 -5.914062 Z M 0.167969 -7.46875 "/>
</g>
</g>
<clipPath id="clip-0">
<path clip-rule="nonzero" d="M 59.039062 208 L 401.757812 208 L 401.757812 209 L 59.039062 209 Z M 59.039062 208 "/>
</clipPath>
<clipPath id="clip-1">
<path clip-rule="nonzero" d="M 326 59.039062 L 401.757812 59.039062 L 401.757812 103 L 326 103 Z M 326 59.039062 "/>
</clipPath>
</defs>
<rect x="-43.2" y="-28.8" width="518.4" height="345.6" fill="rgb(100%, 100%, 100%)" fill-opacity="1"/>
<path fill="none" stroke-width="1.5" stroke-linecap="round" stroke-linejoin="round" stroke="rgb(100%, 0%, 0%)" stroke-opacity="1" stroke-miterlimit="10" d="M 101.292969 208.800781 L 101.855469 208.796875 L 102.980469 208.796875 L 103.546875 208.792969 L 104.109375 208.789062 L 104.671875 208.789062 L 105.234375 208.785156 L 105.796875 208.777344 L 106.359375 208.773438 L 106.925781 208.765625 L 107.488281 208.761719 L 108.050781 208.753906 L 109.175781 208.730469 L 109.738281 208.722656 L 110.304688 208.707031 L 110.867188 208.695312 L 111.992188 208.664062 L 112.554688 208.644531 L 113.117188 208.628906 L 113.683594 208.609375 L 114.808594 208.570312 L 115.371094 208.554688 L 115.933594 208.535156 L 116.496094 208.519531 L 117.0625 208.5 L 117.625 208.484375 L 119.3125 208.449219 L 119.878906 208.441406 L 121.566406 208.429688 L 122.691406 208.429688 L 123.257812 208.433594 L 123.820312 208.4375 L 124.382812 208.4375 L 124.945312 208.441406 L 126.070312 208.441406 L 126.636719 208.4375 L 127.199219 208.433594 L 127.761719 208.425781 L 128.324219 208.410156 L 128.886719 208.390625 L 129.449219 208.367188 L 130.015625 208.339844 L 131.140625 208.261719 L 131.703125 208.210938 L 132.265625 208.152344 L 132.828125 208.089844 L 133.394531 208.019531 L 133.957031 207.941406 L 134.519531 207.855469 L 135.082031 207.761719 L 135.644531 207.664062 L 136.207031 207.558594 L 136.773438 207.445312 L 137.335938 207.332031 L 138.460938 207.082031 L 139.023438 206.949219 L 139.585938 206.808594 L 140.152344 206.667969 L 140.714844 206.519531 L 141.277344 206.367188 L 141.839844 206.210938 L 142.402344 206.050781 L 142.964844 205.882812 L 143.53125 205.714844 L 144.09375 205.539062 L 144.65625 205.359375 L 145.21875 205.175781 L 146.34375 204.800781 L 146.910156 204.605469 L 147.472656 204.40625 L 148.597656 204 L 149.722656 203.585938 L 150.289062 203.371094 L 151.414062 202.941406 L 151.976562 202.71875 L 153.101562 202.265625 L 153.667969 202.027344 L 154.230469 201.785156 L 154.792969 201.535156 L 155.355469 201.273438 L 155.917969 201 L 156.480469 200.710938 L 157.046875 200.410156 L 157.609375 200.089844 L 158.171875 199.742188 L 158.734375 199.378906 L 159.296875 198.988281 L 159.859375 198.570312 L 160.425781 198.128906 L 160.988281 197.660156 L 161.550781 197.15625 L 162.113281 196.621094 L 162.675781 196.054688 L 163.238281 195.460938 L 163.804688 194.839844 L 164.367188 194.195312 L 164.929688 193.519531 L 165.492188 192.820312 L 166.054688 192.101562 L 166.617188 191.367188 L 167.183594 190.617188 L 167.746094 189.859375 L 168.308594 189.089844 L 168.871094 188.316406 L 169.433594 187.539062 L 170 186.761719 L 170.5625 185.980469 L 171.6875 184.425781 L 172.25 183.644531 L 172.8125 182.867188 L 173.378906 182.082031 L 173.941406 181.292969 L 174.503906 180.492188 L 175.066406 179.679688 L 175.628906 178.851562 L 176.191406 178.003906 L 176.757812 177.128906 L 177.320312 176.230469 L 177.882812 175.300781 L 178.445312 174.34375 L 179.007812 173.355469 L 179.570312 172.328125 L 180.136719 171.265625 L 180.699219 170.171875 L 181.261719 169.046875 L 181.824219 167.894531 L 182.386719 166.714844 L 182.949219 165.515625 L 183.515625 164.289062 L 184.078125 163.054688 L 184.640625 161.808594 L 185.765625 159.308594 L 186.328125 158.0625 L 186.894531 156.824219 L 187.457031 155.601562 L 188.019531 154.394531 L 188.582031 153.207031 L 189.144531 152.039062 L 189.707031 150.894531 L 190.273438 149.773438 L 190.835938 148.683594 L 191.398438 147.621094 L 191.960938 146.582031 L 192.523438 145.570312 L 193.085938 144.582031 L 193.652344 143.621094 L 194.214844 142.683594 L 194.777344 141.773438 L 195.339844 140.886719 L 195.902344 140.019531 L 196.464844 139.175781 L 197.03125 138.351562 L 197.59375 137.546875 L 198.15625 136.761719 L 198.71875 135.996094 L 199.28125 135.246094 L 199.84375 134.511719 L 200.410156 133.789062 L 200.972656 133.078125 L 201.535156 132.375 L 203.222656 130.277344 L 203.789062 129.570312 L 204.351562 128.855469 L 204.914062 128.125 L 205.476562 127.378906 L 206.039062 126.605469 L 206.601562 125.808594 L 207.167969 124.988281 L 207.730469 124.136719 L 208.292969 123.253906 L 208.855469 122.339844 L 209.417969 121.390625 L 209.980469 120.410156 L 210.546875 119.398438 L 211.109375 118.363281 L 211.671875 117.300781 L 212.234375 116.214844 L 212.796875 115.101562 L 213.359375 113.972656 L 213.925781 112.832031 L 214.488281 111.675781 L 215.050781 110.507812 L 215.613281 109.332031 L 216.175781 108.144531 L 216.738281 106.949219 L 217.304688 105.738281 L 217.867188 104.519531 L 218.429688 103.289062 L 218.992188 102.042969 L 219.554688 100.777344 L 220.121094 99.484375 L 220.683594 98.167969 L 221.246094 96.824219 L 221.808594 95.453125 L 222.371094 94.054688 L 222.933594 92.625 L 223.5 91.164062 L 224.0625 89.671875 L 224.625 88.15625 L 225.1875 86.625 L 225.75 85.082031 L 226.3125 83.527344 L 226.878906 81.980469 L 227.441406 80.441406 L 228.003906 78.929688 L 228.566406 77.449219 L 229.128906 76.011719 L 229.691406 74.628906 L 230.257812 73.300781 L 230.820312 72.054688 L 231.382812 70.898438 L 231.945312 69.832031 L 232.507812 68.855469 L 233.070312 67.980469 L 233.636719 67.207031 L 234.199219 66.535156 L 234.761719 65.992188 L 235.324219 65.554688 L 235.886719 65.21875 L 236.449219 64.984375 L 237.015625 64.847656 L 237.578125 64.800781 L 238.140625 64.847656 L 238.703125 64.988281 L 239.265625 65.199219 L 239.828125 65.476562 L 240.394531 65.8125 L 240.957031 66.207031 L 241.519531 66.652344 L 242.082031 67.148438 L 242.644531 67.679688 L 243.207031 68.242188 L 243.773438 68.832031 L 244.335938 69.441406 L 244.898438 70.074219 L 245.460938 70.722656 L 246.023438 71.382812 L 246.585938 72.054688 L 247.152344 72.738281 L 247.714844 73.425781 L 248.277344 74.125 L 248.839844 74.832031 L 249.402344 75.554688 L 249.964844 76.289062 L 250.53125 77.035156 L 251.09375 77.800781 L 251.65625 78.589844 L 252.21875 79.40625 L 252.78125 80.25 L 253.34375 81.136719 L 253.910156 82.066406 L 254.472656 83.039062 L 255.035156 84.058594 L 255.597656 85.132812 L 256.160156 86.265625 L 256.722656 87.472656 L 257.289062 88.742188 L 257.851562 90.078125 L 258.414062 91.476562 L 258.976562 92.941406 L 259.539062 94.46875 L 260.101562 96.066406 L 260.667969 97.726562 L 261.230469 99.433594 L 261.792969 101.191406 L 262.355469 102.984375 L 262.917969 104.8125 L 263.480469 106.664062 L 264.046875 108.53125 L 264.609375 110.402344 L 265.171875 112.269531 L 265.734375 114.121094 L 266.296875 115.953125 L 266.859375 117.757812 L 267.425781 119.523438 L 267.988281 121.238281 L 268.550781 122.902344 L 269.113281 124.515625 L 269.675781 126.070312 L 270.242188 127.570312 L 270.804688 129.011719 L 271.367188 130.382812 L 271.929688 131.703125 L 272.492188 132.96875 L 273.054688 134.1875 L 273.621094 135.359375 L 274.183594 136.496094 L 274.746094 137.59375 L 275.308594 138.664062 L 275.871094 139.707031 L 276.433594 140.738281 L 277 141.753906 L 277.5625 142.761719 L 279.8125 146.761719 L 280.378906 147.769531 L 280.941406 148.777344 L 281.503906 149.789062 L 282.066406 150.804688 L 283.191406 152.84375 L 283.757812 153.867188 L 284.320312 154.886719 L 285.445312 156.933594 L 286.007812 157.949219 L 286.570312 158.96875 L 287.136719 159.980469 L 287.699219 160.988281 L 288.261719 161.992188 L 288.824219 162.992188 L 289.386719 163.984375 L 289.949219 164.972656 L 290.515625 165.949219 L 291.078125 166.921875 L 291.640625 167.886719 L 292.203125 168.839844 L 292.765625 169.785156 L 293.328125 170.714844 L 293.894531 171.632812 L 294.457031 172.542969 L 295.019531 173.433594 L 295.582031 174.316406 L 296.144531 175.179688 L 296.707031 176.03125 L 297.273438 176.863281 L 297.835938 177.679688 L 298.398438 178.480469 L 298.960938 179.265625 L 299.523438 180.035156 L 300.085938 180.785156 L 300.652344 181.515625 L 301.214844 182.234375 L 301.777344 182.929688 L 302.339844 183.613281 L 302.902344 184.277344 L 303.464844 184.929688 L 304.03125 185.558594 L 304.59375 186.171875 L 305.15625 186.769531 L 305.71875 187.355469 L 306.28125 187.925781 L 306.84375 188.480469 L 307.410156 189.027344 L 307.972656 189.554688 L 308.535156 190.078125 L 309.097656 190.589844 L 309.660156 191.09375 L 310.222656 191.59375 L 310.789062 192.085938 L 311.351562 192.574219 L 313.039062 194.027344 L 313.601562 194.507812 L 314.167969 194.988281 L 315.855469 196.429688 L 316.417969 196.90625 L 316.980469 197.378906 L 317.546875 197.851562 L 318.109375 198.316406 L 318.671875 198.777344 L 319.234375 199.230469 L 319.796875 199.675781 L 320.363281 200.109375 L 320.925781 200.53125 L 321.488281 200.941406 L 322.050781 201.339844 L 322.613281 201.722656 L 323.175781 202.085938 L 323.742188 202.4375 L 324.304688 202.773438 L 324.867188 203.09375 L 325.429688 203.394531 L 325.992188 203.679688 L 326.554688 203.945312 L 327.121094 204.199219 L 327.683594 204.4375 L 328.246094 204.660156 L 328.808594 204.871094 L 329.371094 205.070312 L 329.933594 205.253906 L 330.5 205.425781 L 331.0625 205.59375 L 331.625 205.75 L 332.1875 205.898438 L 332.75 206.039062 L 333.3125 206.175781 L 333.878906 206.304688 L 334.441406 206.429688 L 335.003906 206.550781 L 336.128906 206.785156 L 336.691406 206.898438 L 337.257812 207.007812 L 337.820312 207.117188 L 338.945312 207.328125 L 339.507812 207.429688 L 340.070312 207.527344 L 340.636719 207.625 L 341.199219 207.71875 L 341.761719 207.808594 L 342.324219 207.894531 L 343.449219 208.058594 L 344.015625 208.132812 L 344.578125 208.203125 L 345.140625 208.269531 L 346.265625 208.386719 L 346.828125 208.4375 L 347.394531 208.484375 L 347.957031 208.527344 L 348.519531 208.566406 L 349.644531 208.628906 L 350.207031 208.652344 L 350.773438 208.675781 L 351.335938 208.695312 L 351.898438 208.710938 L 352.460938 208.722656 L 353.585938 208.738281 L 354.152344 208.742188 L 354.714844 208.746094 L 355.277344 208.746094 L 356.964844 208.734375 L 357.53125 208.726562 L 359.78125 208.679688 L 360.34375 208.664062 L 360.910156 208.648438 L 361.472656 208.628906 L 362.035156 208.613281 L 363.160156 208.574219 L 363.722656 208.558594 L 364.289062 208.539062 L 364.851562 208.523438 L 365.414062 208.503906 L 365.976562 208.492188 L 366.539062 208.476562 L 367.101562 208.464844 L 367.667969 208.457031 L 368.230469 208.449219 L 368.792969 208.445312 L 369.917969 208.445312 L 370.484375 208.449219 L 371.609375 208.464844 L 372.734375 208.488281 L 373.296875 208.503906 L 373.863281 208.519531 L 374.425781 208.535156 L 375.550781 208.574219 L 376.113281 208.589844 L 376.675781 208.609375 L 377.242188 208.628906 L 377.804688 208.644531 L 378.367188 208.664062 L 379.492188 208.695312 L 380.054688 208.707031 L 380.621094 208.722656 L 381.183594 208.730469 L 382.308594 208.753906 L 382.871094 208.761719 L 383.433594 208.765625 L 384 208.773438 L 384.5625 208.777344 L 385.125 208.785156 L 385.6875 208.789062 L 386.25 208.789062 L 386.8125 208.792969 L 387.378906 208.796875 L 388.503906 208.796875 L 389.066406 208.800781 "/>
<path fill="none" stroke-width="0.75" stroke-linecap="round" stroke-linejoin="round" stroke="rgb(0%, 0%, 0%)" stroke-opacity="1" stroke-miterlimit="10" d="M 92.484375 214.558594 L 395.765625 214.558594 "/>
<path fill="none" stroke-width="0.75" stroke-linecap="round" stroke-linejoin="round" stroke="rgb(0%, 0%, 0%)" stroke-opacity="1" stroke-miterlimit="10" d="M 92.484375 214.558594 L 92.484375 221.761719 "/>
<path fill="none" stroke-width="0.75" stroke-linecap="round" stroke-linejoin="round" stroke="rgb(0%, 0%, 0%)" stroke-opacity="1" stroke-miterlimit="10" d="M 143.03125 214.558594 L 143.03125 221.761719 "/>
<path fill="none" stroke-width="0.75" stroke-linecap="round" stroke-linejoin="round" stroke="rgb(0%, 0%, 0%)" stroke-opacity="1" stroke-miterlimit="10" d="M 193.578125 214.558594 L 193.578125 221.761719 "/>
<path fill="none" stroke-width="0.75" stroke-linecap="round" stroke-linejoin="round" stroke="rgb(0%, 0%, 0%)" stroke-opacity="1" stroke-miterlimit="10" d="M 244.125 214.558594 L 244.125 221.761719 "/>
<path fill="none" stroke-width="0.75" stroke-linecap="round" stroke-linejoin="round" stroke="rgb(0%, 0%, 0%)" stroke-opacity="1" stroke-miterlimit="10" d="M 294.671875 214.558594 L 294.671875 221.761719 "/>
<path fill="none" stroke-width="0.75" stroke-linecap="round" stroke-linejoin="round" stroke="rgb(0%, 0%, 0%)" stroke-opacity="1" stroke-miterlimit="10" d="M 345.21875 214.558594 L 345.21875 221.761719 "/>
<path fill="none" stroke-width="0.75" stroke-linecap="round" stroke-linejoin="round" stroke="rgb(0%, 0%, 0%)" stroke-opacity="1" stroke-miterlimit="10" d="M 395.765625 214.558594 L 395.765625 221.761719 "/>
<g fill="rgb(0%, 0%, 0%)" fill-opacity="1">
<use xlink:href="#glyph-0-0" x="84.144531" y="240.480469"/>
<use xlink:href="#glyph-0-1" x="90.818359" y="240.480469"/>
<use xlink:href="#glyph-0-2" x="94.152344" y="240.480469"/>
</g>
<g fill="rgb(0%, 0%, 0%)" fill-opacity="1">
<use xlink:href="#glyph-0-0" x="134.691406" y="240.480469"/>
<use xlink:href="#glyph-0-1" x="141.365234" y="240.480469"/>
<use xlink:href="#glyph-0-3" x="144.699219" y="240.480469"/>
</g>
<g fill="rgb(0%, 0%, 0%)" fill-opacity="1">
<use xlink:href="#glyph-0-4" x="185.238281" y="240.480469"/>
<use xlink:href="#glyph-0-1" x="191.912109" y="240.480469"/>
<use xlink:href="#glyph-0-5" x="195.246094" y="240.480469"/>
</g>
<g fill="rgb(0%, 0%, 0%)" fill-opacity="1">
<use xlink:href="#glyph-0-4" x="235.785156" y="240.480469"/>
<use xlink:href="#glyph-0-1" x="242.458984" y="240.480469"/>
<use xlink:href="#glyph-0-6" x="245.792969" y="240.480469"/>
</g>
<g fill="rgb(0%, 0%, 0%)" fill-opacity="1">
<use xlink:href="#glyph-0-4" x="286.332031" y="240.480469"/>
<use xlink:href="#glyph-0-1" x="293.005859" y="240.480469"/>
<use xlink:href="#glyph-0-0" x="296.339844" y="240.480469"/>
</g>
<g fill="rgb(0%, 0%, 0%)" fill-opacity="1">
<use xlink:href="#glyph-0-4" x="336.878906" y="240.480469"/>
<use xlink:href="#glyph-0-1" x="343.552734" y="240.480469"/>
<use xlink:href="#glyph-0-2" x="346.886719" y="240.480469"/>
</g>
<g fill="rgb(0%, 0%, 0%)" fill-opacity="1">
<use xlink:href="#glyph-0-4" x="387.425781" y="240.480469"/>
<use xlink:href="#glyph-0-1" x="394.099609" y="240.480469"/>
<use xlink:href="#glyph-0-3" x="397.433594" y="240.480469"/>
</g>
<path fill="none" stroke-width="0.75" stroke-linecap="round" stroke-linejoin="round" stroke="rgb(0%, 0%, 0%)" stroke-opacity="1" stroke-miterlimit="10" d="M 59.039062 208.804688 L 59.039062 68.796875 "/>
<path fill="none" stroke-width="0.75" stroke-linecap="round" stroke-linejoin="round" stroke="rgb(0%, 0%, 0%)" stroke-opacity="1" stroke-miterlimit="10" d="M 59.039062 208.804688 L 51.839844 208.804688 "/>
<path fill="none" stroke-width="0.75" stroke-linecap="round" stroke-linejoin="round" stroke="rgb(0%, 0%, 0%)" stroke-opacity="1" stroke-miterlimit="10" d="M 59.039062 185.46875 L 51.839844 185.46875 "/>
<path fill="none" stroke-width="0.75" stroke-linecap="round" stroke-linejoin="round" stroke="rgb(0%, 0%, 0%)" stroke-opacity="1" stroke-miterlimit="10" d="M 59.039062 162.132812 L 51.839844 162.132812 "/>
<path fill="none" stroke-width="0.75" stroke-linecap="round" stroke-linejoin="round" stroke="rgb(0%, 0%, 0%)" stroke-opacity="1" stroke-miterlimit="10" d="M 59.039062 138.800781 L 51.839844 138.800781 "/>
<path fill="none" stroke-width="0.75" stroke-linecap="round" stroke-linejoin="round" stroke="rgb(0%, 0%, 0%)" stroke-opacity="1" stroke-miterlimit="10" d="M 59.039062 115.464844 L 51.839844 115.464844 "/>
<path fill="none" stroke-width="0.75" stroke-linecap="round" stroke-linejoin="round" stroke="rgb(0%, 0%, 0%)" stroke-opacity="1" stroke-miterlimit="10" d="M 59.039062 92.128906 L 51.839844 92.128906 "/>
<path fill="none" stroke-width="0.75" stroke-linecap="round" stroke-linejoin="round" stroke="rgb(0%, 0%, 0%)" stroke-opacity="1" stroke-miterlimit="10" d="M 59.039062 68.796875 L 51.839844 68.796875 "/>
<g fill="rgb(0%, 0%, 0%)" fill-opacity="1">
<use xlink:href="#glyph-1-0" x="41.761719" y="217.144531"/>
<use xlink:href="#glyph-1-1" x="41.761719" y="210.470703"/>
<use xlink:href="#glyph-1-0" x="41.761719" y="207.136719"/>
</g>
<g fill="rgb(0%, 0%, 0%)" fill-opacity="1">
<use xlink:href="#glyph-1-2" x="41.761719" y="170.472656"/>
<use xlink:href="#glyph-1-1" x="41.761719" y="163.798828"/>
<use xlink:href="#glyph-1-0" x="41.761719" y="160.464844"/>
</g>
<g fill="rgb(0%, 0%, 0%)" fill-opacity="1">
<use xlink:href="#glyph-1-3" x="41.761719" y="123.804688"/>
<use xlink:href="#glyph-1-1" x="41.761719" y="117.130859"/>
<use xlink:href="#glyph-1-0" x="41.761719" y="113.796875"/>
</g>
<g fill="rgb(0%, 0%, 0%)" fill-opacity="1">
<use xlink:href="#glyph-1-4" x="41.761719" y="77.136719"/>
<use xlink:href="#glyph-1-1" x="41.761719" y="70.462891"/>
<use xlink:href="#glyph-1-0" x="41.761719" y="67.128906"/>
</g>
<path fill="none" stroke-width="0.75" stroke-linecap="round" stroke-linejoin="round" stroke="rgb(0%, 0%, 0%)" stroke-opacity="1" stroke-miterlimit="10" d="M 59.039062 214.558594 L 401.761719 214.558594 L 401.761719 59.039062 L 59.039062 59.039062 Z M 59.039062 214.558594 "/>
<g fill="rgb(0%, 0%, 0%)" fill-opacity="1">
<use xlink:href="#glyph-2-0" x="127.582031" y="35.175781"/>
<use xlink:href="#glyph-2-1" x="137.98125" y="35.175781"/>
<use xlink:href="#glyph-2-2" x="145.989844" y="35.175781"/>
<use xlink:href="#glyph-2-3" x="154.785937" y="35.175781"/>
<use xlink:href="#glyph-2-4" x="162.794531" y="35.175781"/>
<use xlink:href="#glyph-2-5" x="166.795312" y="35.175781"/>
<use xlink:href="#glyph-2-6" x="171.590625" y="35.175781"/>
<use xlink:href="#glyph-2-7" x="179.599219" y="35.175781"/>
<use xlink:href="#glyph-2-8" x="183.6" y="35.175781"/>
<use xlink:href="#glyph-2-9" x="193.999219" y="35.175781"/>
<use xlink:href="#glyph-2-10" x="202.795312" y="35.175781"/>
<use xlink:href="#glyph-2-11" x="215.599219" y="35.175781"/>
<use xlink:href="#glyph-2-12" x="224.395312" y="35.175781"/>
<use xlink:href="#glyph-2-13" x="232.403906" y="35.175781"/>
<use xlink:href="#glyph-2-4" x="238.007812" y="35.175781"/>
<use xlink:href="#glyph-2-3" x="242.008594" y="35.175781"/>
<use xlink:href="#glyph-2-9" x="250.017187" y="35.175781"/>
<use xlink:href="#glyph-2-2" x="258.813281" y="35.175781"/>
<use xlink:href="#glyph-2-14" x="267.609375" y="35.175781"/>
<use xlink:href="#glyph-2-7" x="272.404687" y="35.175781"/>
<use xlink:href="#glyph-2-15" x="276.405469" y="35.175781"/>
<use xlink:href="#glyph-2-9" x="284.414062" y="35.175781"/>
<use xlink:href="#glyph-2-16" x="293.210156" y="35.175781"/>
<use xlink:href="#glyph-2-12" x="298.005469" y="35.175781"/>
<use xlink:href="#glyph-2-15" x="306.014062" y="35.175781"/>
<use xlink:href="#glyph-2-5" x="314.022656" y="35.175781"/>
<use xlink:href="#glyph-2-9" x="318.817969" y="35.175781"/>
<use xlink:href="#glyph-2-13" x="327.614062" y="35.175781"/>
</g>
<g fill="rgb(0%, 0%, 0%)" fill-opacity="1">
<use xlink:href="#glyph-0-7" x="215.054688" y="269.28125"/>
<use xlink:href="#glyph-0-8" x="223.058594" y="269.28125"/>
<use xlink:href="#glyph-0-9" x="229.732422" y="269.28125"/>
<use xlink:href="#glyph-0-10" x="232.398438" y="269.28125"/>
<use xlink:href="#glyph-0-11" x="239.072266" y="269.28125"/>
</g>
<g fill="rgb(0%, 0%, 0%)" fill-opacity="1">
<use xlink:href="#glyph-1-5" x="12.960938" y="156.808594"/>
<use xlink:href="#glyph-1-6" x="12.960938" y="148.142578"/>
<use xlink:href="#glyph-1-7" x="12.960938" y="141.46875"/>
<use xlink:href="#glyph-1-8" x="12.960938" y="134.794922"/>
<use xlink:href="#glyph-1-9" x="12.960938" y="128.794922"/>
<use xlink:href="#glyph-1-10" x="12.960938" y="126.128906"/>
<use xlink:href="#glyph-1-11" x="12.960938" y="122.794922"/>
</g>
<g clip-path="url(#clip-0)">
<path fill="none" stroke-width="0.1875" stroke-linecap="round" stroke-linejoin="round" stroke="rgb(74.509804%, 74.509804%, 74.509804%)" stroke-opacity="1" stroke-miterlimit="10" d="M 59.039062 208.804688 L 401.761719 208.804688 "/>
</g>
<path fill="none" stroke-width="1.5" stroke-linecap="round" stroke-linejoin="round" stroke="rgb(0%, 0%, 100%)" stroke-opacity="1" stroke-dasharray="6 6" stroke-miterlimit="10" d="M 71.734375 208.800781 L 72.324219 208.800781 L 72.917969 208.796875 L 73.507812 208.796875 L 74.101562 208.792969 L 74.691406 208.789062 L 75.28125 208.789062 L 75.875 208.785156 L 76.464844 208.78125 L 77.058594 208.773438 L 77.648438 208.769531 L 78.242188 208.761719 L 78.832031 208.753906 L 79.425781 208.746094 L 80.015625 208.734375 L 80.609375 208.722656 L 81.199219 208.710938 L 81.792969 208.695312 L 82.382812 208.683594 L 82.972656 208.667969 L 83.566406 208.648438 L 84.15625 208.632812 L 84.75 208.613281 L 85.339844 208.597656 L 85.933594 208.578125 L 86.523438 208.5625 L 87.117188 208.542969 L 87.707031 208.527344 L 88.300781 208.511719 L 89.480469 208.488281 L 90.074219 208.476562 L 90.664062 208.46875 L 91.257812 208.460938 L 91.847656 208.457031 L 93.03125 208.457031 L 93.625 208.460938 L 94.214844 208.46875 L 94.808594 208.476562 L 95.398438 208.484375 L 95.992188 208.492188 L 97.171875 208.515625 L 97.765625 208.527344 L 98.355469 208.539062 L 98.949219 208.546875 L 99.539062 208.554688 L 100.132812 208.5625 L 100.722656 208.566406 L 101.90625 208.566406 L 102.5 208.5625 L 103.089844 208.554688 L 103.679688 208.542969 L 104.273438 208.527344 L 104.863281 208.511719 L 105.457031 208.488281 L 106.046875 208.464844 L 106.640625 208.4375 L 107.230469 208.410156 L 107.824219 208.378906 L 108.414062 208.34375 L 109.007812 208.3125 L 109.597656 208.277344 L 110.1875 208.246094 L 110.78125 208.210938 L 111.371094 208.179688 L 111.964844 208.152344 L 112.554688 208.125 L 113.148438 208.101562 L 113.738281 208.082031 L 114.332031 208.0625 L 114.921875 208.046875 L 115.515625 208.035156 L 116.105469 208.027344 L 116.699219 208.019531 L 117.878906 208.011719 L 118.472656 208.007812 L 119.0625 208 L 119.65625 207.996094 L 120.246094 207.984375 L 120.839844 207.972656 L 121.429688 207.957031 L 122.023438 207.933594 L 122.613281 207.90625 L 123.207031 207.871094 L 123.796875 207.828125 L 124.386719 207.78125 L 124.980469 207.722656 L 125.570312 207.65625 L 126.164062 207.582031 L 126.753906 207.496094 L 127.347656 207.402344 L 127.9375 207.304688 L 128.53125 207.195312 L 129.121094 207.078125 L 129.714844 206.957031 L 130.304688 206.832031 L 130.898438 206.699219 L 131.488281 206.5625 L 132.078125 206.421875 L 132.671875 206.277344 L 133.261719 206.132812 L 133.855469 205.984375 L 134.445312 205.839844 L 135.039062 205.691406 L 135.628906 205.539062 L 136.222656 205.390625 L 136.8125 205.242188 L 137.40625 205.089844 L 138.585938 204.785156 L 139.179688 204.628906 L 139.769531 204.472656 L 140.363281 204.3125 L 140.953125 204.148438 L 141.546875 203.980469 L 142.136719 203.808594 L 142.730469 203.628906 L 143.320312 203.445312 L 143.914062 203.257812 L 144.503906 203.0625 L 145.097656 202.863281 L 145.6875 202.660156 L 146.277344 202.449219 L 146.871094 202.230469 L 147.460938 202.011719 L 148.054688 201.789062 L 148.644531 201.5625 L 149.238281 201.332031 L 149.828125 201.101562 L 150.421875 200.871094 L 151.011719 200.636719 L 151.605469 200.402344 L 152.195312 200.171875 L 152.785156 199.9375 L 153.378906 199.703125 L 153.96875 199.46875 L 154.5625 199.230469 L 155.152344 198.988281 L 155.746094 198.742188 L 156.335938 198.492188 L 156.929688 198.230469 L 157.519531 197.957031 L 158.113281 197.667969 L 158.703125 197.359375 L 159.292969 197.03125 L 159.886719 196.675781 L 160.476562 196.296875 L 161.070312 195.882812 L 161.660156 195.429688 L 162.253906 194.941406 L 162.84375 194.410156 L 163.4375 193.839844 L 164.027344 193.226562 L 164.621094 192.570312 L 165.210938 191.871094 L 165.804688 191.125 L 166.394531 190.339844 L 166.984375 189.523438 L 167.578125 188.671875 L 168.167969 187.792969 L 168.761719 186.890625 L 169.351562 185.964844 L 169.945312 185.027344 L 170.535156 184.085938 L 171.128906 183.140625 L 171.71875 182.203125 L 172.3125 181.269531 L 172.902344 180.351562 L 173.492188 179.449219 L 174.085938 178.5625 L 174.675781 177.699219 L 175.269531 176.851562 L 175.859375 176.023438 L 176.453125 175.210938 L 177.042969 174.414062 L 177.636719 173.625 L 178.226562 172.839844 L 178.820312 172.050781 L 179.410156 171.257812 L 180.003906 170.445312 L 180.59375 169.617188 L 181.183594 168.75 L 181.777344 167.855469 L 182.367188 166.917969 L 182.960938 165.9375 L 183.550781 164.910156 L 184.144531 163.835938 L 184.734375 162.703125 L 185.328125 161.515625 L 185.917969 160.28125 L 186.511719 159.003906 L 187.101562 157.683594 L 187.691406 156.324219 L 188.285156 154.9375 L 188.875 153.523438 L 189.46875 152.09375 L 190.058594 150.664062 L 190.652344 149.234375 L 191.242188 147.8125 L 191.835938 146.414062 L 192.425781 145.039062 L 193.019531 143.703125 L 193.609375 142.402344 L 194.203125 141.144531 L 194.792969 139.929688 L 195.382812 138.757812 L 195.976562 137.628906 L 196.566406 136.550781 L 197.160156 135.503906 L 197.75 134.488281 L 198.34375 133.496094 L 198.933594 132.519531 L 199.527344 131.550781 L 200.117188 130.585938 L 200.710938 129.613281 L 201.300781 128.621094 L 201.890625 127.609375 L 202.484375 126.570312 L 203.074219 125.496094 L 203.667969 124.390625 L 204.257812 123.242188 L 204.851562 122.0625 L 205.441406 120.847656 L 206.035156 119.605469 L 206.625 118.339844 L 207.21875 117.054688 L 207.808594 115.761719 L 208.398438 114.464844 L 208.992188 113.175781 L 209.582031 111.898438 L 210.175781 110.644531 L 210.765625 109.414062 L 211.359375 108.214844 L 211.949219 107.054688 L 212.542969 105.9375 L 213.132812 104.855469 L 213.726562 103.8125 L 214.316406 102.808594 L 214.910156 101.839844 L 215.5 100.902344 L 216.089844 100 L 216.683594 99.117188 L 217.273438 98.253906 L 217.867188 97.40625 L 218.457031 96.570312 L 219.050781 95.742188 L 219.640625 94.921875 L 220.234375 94.105469 L 220.824219 93.292969 L 221.417969 92.484375 L 222.007812 91.675781 L 222.597656 90.875 L 223.191406 90.078125 L 223.78125 89.292969 L 224.375 88.515625 L 224.964844 87.753906 L 225.558594 87.003906 L 226.148438 86.265625 L 226.742188 85.550781 L 227.332031 84.851562 L 227.925781 84.175781 L 228.515625 83.519531 L 229.109375 82.882812 L 229.699219 82.269531 L 230.289062 81.671875 L 230.882812 81.101562 L 231.472656 80.550781 L 232.066406 80.023438 L 232.65625 79.519531 L 233.25 79.039062 L 233.839844 78.578125 L 234.433594 78.148438 L 235.023438 77.746094 L 235.617188 77.371094 L 236.207031 77.027344 L 236.796875 76.714844 L 237.390625 76.433594 L 237.980469 76.179688 L 238.574219 75.964844 L 239.164062 75.789062 L 239.757812 75.644531 L 240.347656 75.535156 L 240.941406 75.453125 L 241.53125 75.40625 L 242.125 75.386719 L 242.714844 75.402344 L 243.308594 75.445312 L 243.898438 75.511719 L 244.488281 75.605469 L 245.082031 75.71875 L 245.671875 75.859375 L 246.265625 76.019531 L 246.855469 76.207031 L 247.449219 76.421875 L 248.039062 76.65625 L 248.632812 76.921875 L 249.222656 77.21875 L 249.816406 77.550781 L 250.40625 77.921875 L 250.996094 78.34375 L 251.589844 78.808594 L 252.179688 79.328125 L 252.773438 79.90625 L 253.363281 80.542969 L 253.957031 81.253906 L 254.546875 82.046875 L 255.140625 82.917969 L 255.730469 83.863281 L 256.324219 84.894531 L 256.914062 86.007812 L 257.503906 87.207031 L 258.097656 88.503906 L 258.6875 89.890625 L 259.28125 91.355469 L 259.871094 92.90625 L 260.464844 94.527344 L 261.054688 96.226562 L 261.648438 97.996094 L 262.238281 99.839844 L 262.832031 101.742188 L 263.421875 103.695312 L 264.015625 105.691406 L 264.605469 107.726562 L 265.195312 109.796875 L 265.789062 111.898438 L 266.378906 114.015625 L 266.972656 116.148438 L 267.5625 118.28125 L 268.15625 120.417969 L 268.746094 122.546875 L 269.339844 124.664062 L 269.929688 126.761719 L 270.523438 128.832031 L 271.113281 130.875 L 271.703125 132.878906 L 272.296875 134.851562 L 272.886719 136.777344 L 273.480469 138.652344 L 274.070312 140.472656 L 274.664062 142.234375 L 275.253906 143.945312 L 275.847656 145.59375 L 276.4375 147.183594 L 277.03125 148.710938 L 277.621094 150.160156 L 278.214844 151.546875 L 278.804688 152.867188 L 279.394531 154.125 L 279.988281 155.320312 L 280.578125 156.453125 L 281.171875 157.515625 L 281.761719 158.519531 L 282.355469 159.464844 L 282.945312 160.359375 L 283.539062 161.207031 L 284.128906 162.007812 L 284.722656 162.769531 L 285.3125 163.484375 L 285.902344 164.171875 L 286.496094 164.828125 L 287.085938 165.464844 L 287.679688 166.085938 L 288.269531 166.6875 L 289.453125 167.871094 L 290.046875 168.460938 L 290.636719 169.054688 L 291.230469 169.652344 L 291.820312 170.261719 L 292.414062 170.882812 L 293.003906 171.523438 L 293.59375 172.183594 L 294.1875 172.863281 L 294.777344 173.566406 L 295.371094 174.289062 L 295.960938 175.035156 L 296.554688 175.808594 L 297.144531 176.605469 L 297.738281 177.429688 L 298.328125 178.273438 L 298.921875 179.136719 L 299.511719 180.019531 L 300.101562 180.917969 L 300.695312 181.828125 L 301.285156 182.75 L 301.878906 183.671875 L 302.46875 184.59375 L 303.0625 185.511719 L 303.652344 186.421875 L 304.246094 187.316406 L 304.835938 188.191406 L 305.429688 189.039062 L 306.019531 189.863281 L 306.609375 190.65625 L 307.203125 191.414062 L 307.792969 192.136719 L 308.386719 192.8125 L 308.976562 193.449219 L 309.570312 194.046875 L 310.160156 194.601562 L 310.753906 195.121094 L 311.34375 195.601562 L 311.9375 196.046875 L 312.527344 196.453125 L 313.121094 196.832031 L 313.710938 197.183594 L 314.300781 197.515625 L 314.894531 197.828125 L 315.484375 198.128906 L 316.078125 198.414062 L 316.667969 198.695312 L 317.261719 198.976562 L 317.851562 199.253906 L 318.445312 199.535156 L 319.035156 199.820312 L 319.628906 200.113281 L 320.21875 200.414062 L 320.808594 200.722656 L 321.402344 201.035156 L 321.992188 201.359375 L 322.585938 201.6875 L 323.175781 202.023438 L 323.769531 202.359375 L 324.359375 202.699219 L 324.953125 203.035156 L 325.542969 203.371094 L 326.136719 203.699219 L 326.726562 204.019531 L 327.320312 204.332031 L 327.910156 204.628906 L 328.5 204.914062 L 329.09375 205.179688 L 329.683594 205.433594 L 330.277344 205.664062 L 330.867188 205.878906 L 331.460938 206.074219 L 332.050781 206.246094 L 332.644531 206.394531 L 333.234375 206.527344 L 333.828125 206.640625 L 334.417969 206.734375 L 335.007812 206.808594 L 335.601562 206.863281 L 336.191406 206.902344 L 336.785156 206.929688 L 337.375 206.941406 L 337.96875 206.941406 L 338.558594 206.933594 L 339.152344 206.917969 L 339.742188 206.894531 L 340.335938 206.867188 L 340.925781 206.835938 L 341.519531 206.808594 L 342.109375 206.777344 L 342.699219 206.753906 L 343.292969 206.730469 L 343.882812 206.714844 L 344.476562 206.703125 L 345.066406 206.699219 L 345.660156 206.707031 L 346.25 206.71875 L 346.84375 206.738281 L 347.433594 206.769531 L 348.027344 206.804688 L 348.617188 206.851562 L 349.207031 206.902344 L 349.800781 206.960938 L 350.390625 207.027344 L 350.984375 207.097656 L 351.574219 207.171875 L 352.167969 207.253906 L 352.757812 207.332031 L 353.351562 207.417969 L 353.941406 207.5 L 354.535156 207.585938 L 355.714844 207.757812 L 356.308594 207.839844 L 356.898438 207.917969 L 357.492188 207.996094 L 358.082031 208.070312 L 358.675781 208.140625 L 359.265625 208.210938 L 359.859375 208.273438 L 360.449219 208.332031 L 361.042969 208.386719 L 361.632812 208.4375 L 362.226562 208.484375 L 362.816406 208.527344 L 363.40625 208.5625 L 364 208.597656 L 364.589844 208.628906 L 365.183594 208.65625 L 365.773438 208.679688 L 366.367188 208.699219 L 366.957031 208.714844 L 367.550781 208.730469 L 368.140625 208.746094 L 368.734375 208.753906 L 369.324219 208.765625 L 369.914062 208.773438 L 370.507812 208.777344 L 371.097656 208.785156 L 371.691406 208.789062 L 372.28125 208.792969 L 372.875 208.792969 L 373.464844 208.796875 L 374.058594 208.796875 "/>
<g clip-path="url(#clip-1)">
<path fill-rule="nonzero" fill="rgb(100%, 100%, 100%)" fill-opacity="1" stroke-width="0.75" stroke-linecap="round" stroke-linejoin="round" stroke="rgb(0%, 0%, 0%)" stroke-opacity="1" stroke-miterlimit="10" d="M 326.492188 59.039062 L 401.757812 59.039062 L 401.757812 102.238281 L 326.492188 102.238281 Z M 326.492188 59.039062 "/>
</g>
<path fill="none" stroke-width="1.5" stroke-linecap="round" stroke-linejoin="round" stroke="rgb(100%, 0%, 0%)" stroke-opacity="1" stroke-miterlimit="10" d="M 337.292969 73.441406 L 358.894531 73.441406 "/>
<path fill="none" stroke-width="1.5" stroke-linecap="round" stroke-linejoin="round" stroke="rgb(0%, 0%, 100%)" stroke-opacity="1" stroke-dasharray="6 6" stroke-miterlimit="10" d="M 337.292969 87.839844 L 358.894531 87.839844 "/>
<g fill="rgb(0%, 0%, 0%)" fill-opacity="1">
<use xlink:href="#glyph-0-12" x="369.695312" y="78.234375"/>
<use xlink:href="#glyph-0-13" x="376.369141" y="78.234375"/>
<use xlink:href="#glyph-0-14" x="380.365234" y="78.234375"/>
<use xlink:href="#glyph-0-15" x="390.361328" y="78.234375"/>
</g>
<g fill="rgb(0%, 0%, 0%)" fill-opacity="1">
<use xlink:href="#glyph-0-16" x="369.695312" y="92.636719"/>
<use xlink:href="#glyph-0-17" x="377.699219" y="92.636719"/>
</g>
</svg>
